<?xml version="1.0" standalone="no"?>

<svg 
     version="1.1"
     baseProfile="full"
     xmlns="http://www.w3.org/2000/svg"
     xmlns:xlink="http://www.w3.org/1999/xlink"
     xmlns:ev="http://www.w3.org/2001/xml-events"
     xmlns:klighd="http://de.cau.cs.kieler/klighd"
     xml:space="preserve"
     x="0px"
     y="0px"
     width="134px"
     height="285px"
     viewBox="0 0 134 285"
     >
<title></title>
<desc>Creator: FreeHEP Graphics2D Driver Producer: de.cau.cs.kieler.klighd.piccolo.freehep.SemanticSVGGraphics2D Revision Source:  Date: Tuesday, March 26, 2019 11:46:20 AM CET</desc>
<g stroke-linejoin="miter" stroke-dashoffset="0" stroke-dasharray="none" stroke-width="1" stroke-miterlimit="10" stroke-linecap="square">
<g transform="matrix(1, 0, 0, 1, 0.5, 0)">
<g fill-opacity="1" fill-rule="nonzero" stroke="none" fill="#ffffff">
  <path d="M 0.5 1.5 L 0.5 283.5 C 0.5 284.0522847498308 0.9477152501692067 284.5 1.5 284.5 L 131.5 284.5 C 132.0522847498308 284.5 132.5 284.0522847498308 132.5 283.5 L 132.5 1.5 C 132.5 0.9477152501692067 132.0522847498308 0.5 131.5 0.5 L 1.5 0.5 C 0.9477152501692067 0.5 0.5 0.9477152501692067 0.5 1.5 z"/>
</g>
</g>
<g transform="matrix(1, 0, 0, 1, 0.5, 0)">
<g stroke-linecap="butt" fill="none" stroke-opacity="1" stroke="#000000">
  <path d="M 0.5 1.5 L 0.5 283.5 C 0.5 284.0522847498308 0.9477152501692067 284.5 1.5 284.5 L 131.5 284.5 C 132.0522847498308 284.5 132.5 284.0522847498308 132.5 283.5 L 132.5 1.5 C 132.5 0.9477152501692067 132.0522847498308 0.5 131.5 0.5 L 1.5 0.5 C 0.9477152501692067 0.5 0.5 0.9477152501692067 0.5 1.5 z"/>
</g>
</g>
<g transform="matrix(1, 0, 0, 1, 5.5, 2)">
<g fill-opacity="0" fill-rule="nonzero" stroke="none" fill="#000000">
  <path d="M 0 0 L 123 0 L 123 18 L 0 18 L 0 0 z"/>
</g>
</g>
<g transform="matrix(1, 0, 0, 1, 5.5, 2)">
<clipPath id="clip1">
  <path d="M -5.5 -2 L -5.5 283 L 128.5 283 L 128.5 -2 z"/>
</clipPath>
<g clip-path="url(#clip1)">
<text fill-opacity="1" font-style="normal" font-family="Helvetica" font-weight="bold" stroke="none" fill="#000000" font-size="14.666666984558105px" x="0" y="0"><tspan x="0" dy="14.0">http_error_404</tspan>
</text>
</g>
</g>
<g transform="matrix(1, 0, 0, 1, 0.5, 22)">
<g stroke-linecap="butt" fill="none" stroke-opacity="1" stroke="#000000">
  <path d="M 0 1.5 L 133 1.5"/>
</g>
</g>
<g transform="matrix(1, 0, 0, 1, 30.5, 40)">
<g fill-opacity="1" fill-rule="nonzero" stroke="none" fill="#ffffff">
  <path d="M 38.5 19 C 38.5 29.217267871869673 29.99341024678507 37.5 19.5 37.5 C 9.006589753214927 37.5 0.5 29.217267871869673 0.5 19 C 0.5 8.782732128130323 9.006589753214927 0.5 19.5 0.5 C 29.99341024678507 0.5 38.5 8.782732128130323 38.5 19 z"/>
</g>
</g>
<g transform="matrix(1, 0, 0, 1, 30.5, 40)">
<g stroke-linecap="butt" fill="none" stroke-opacity="1" stroke="#000000">
  <path d="M 38.5 19 C 38.5 29.217267871869673 29.99341024678507 37.5 19.5 37.5 C 9.006589753214927 37.5 0.5 29.217267871869673 0.5 19 C 0.5 8.782732128130323 9.006589753214927 0.5 19.5 0.5 C 29.99341024678507 0.5 38.5 8.782732128130323 38.5 19 z"/>
</g>
</g>
<g transform="matrix(1, 0, 0, 1, 40.5, 50)">
<clipPath id="clip2">
  <path d="M -40.5 -50 L -40.5 235 L 93.5 235 L 93.5 -50 z"/>
</clipPath>
<g clip-path="url(#clip2)">
<text fill-opacity="1" font-style="normal" font-family="Helvetica" font-weight="normal" stroke="none" fill="#000000" font-size="14.666666984558105px" x="0" y="0"><tspan x="0" dy="14.0">no</tspan>
</text>
</g>
</g>
<g transform="matrix(1, 0, 0, 1, 46.5, 136)">
<g fill-opacity="1" fill-rule="nonzero" stroke="none" fill="#ffffff">
  <path d="M 55.5 19 C 55.5 29.217267871869673 43.187830620346816 37.5 28 37.5 C 12.812169379653183 37.5 0.5 29.217267871869673 0.5 19 C 0.5 8.782732128130323 12.812169379653183 0.5 28 0.5 C 43.187830620346816 0.5 55.5 8.782732128130323 55.5 19 z"/>
</g>
</g>
<g transform="matrix(1, 0, 0, 1, 46.5, 136)">
<g stroke-linecap="butt" fill="none" stroke-opacity="1" stroke="#000000">
  <path d="M 55.5 19 C 55.5 29.217267871869673 43.187830620346816 37.5 28 37.5 C 12.812169379653183 37.5 0.5 29.217267871869673 0.5 19 C 0.5 8.782732128130323 12.812169379653183 0.5 28 0.5 C 43.187830620346816 0.5 55.5 8.782732128130323 55.5 19 z"/>
</g>
</g>
<g transform="matrix(1, 0, 0, 1, 56.5, 146)">
<clipPath id="clip3">
  <path d="M -56.5 -146 L -56.5 139 L 77.5 139 L 77.5 -146 z"/>
</clipPath>
<g clip-path="url(#clip3)">
<text fill-opacity="1" font-style="normal" font-family="Helvetica" font-weight="normal" stroke="none" fill="#000000" font-size="14.666666984558105px" x="0" y="0"><tspan x="0" dy="14.0">such</tspan>
</text>
</g>
</g>
<g transform="matrix(1, 0, 0, 1, 21, 232)">
<g fill-opacity="1" fill-rule="nonzero" stroke="none" fill="#ffffff">
  <path d="M 57.5 19 C 57.5 29.217267871869673 44.740115370177605 37.5 29 37.5 C 13.25988462982239 37.5 0.5 29.217267871869673 0.5 19 C 0.5 8.782732128130323 13.25988462982239 0.5 29 0.5 C 44.740115370177605 0.5 57.5 8.782732128130323 57.5 19 z"/>
</g>
</g>
<g transform="matrix(1, 0, 0, 1, 21, 232)">
<g stroke-linecap="butt" fill="none" stroke-opacity="1" stroke="#000000">
  <path d="M 57.5 19 C 57.5 29.217267871869673 44.740115370177605 37.5 29 37.5 C 13.25988462982239 37.5 0.5 29.217267871869673 0.5 19 C 0.5 8.782732128130323 13.25988462982239 0.5 29 0.5 C 44.740115370177605 0.5 57.5 8.782732128130323 57.5 19 z"/>
</g>
</g>
<g transform="matrix(1, 0, 0, 1, 31, 242)">
<clipPath id="clip4">
  <path d="M -31 -242 L -31 43 L 103 43 L 103 -242 z"/>
</clipPath>
<g clip-path="url(#clip4)">
<text fill-opacity="1" font-style="normal" font-family="Helvetica" font-weight="normal" stroke="none" fill="#000000" font-size="14.666666984558105px" x="0" y="0"><tspan x="0" dy="14.0">page</tspan>
</text>
</g>
</g>
<g transform="matrix(1, 0, 0, 1, 3.5, 28)">
<g stroke-linecap="round" fill="none" stroke-opacity="1" stroke="#000000">
  <path d="M 52.66644287109375 49.02498245239258 C 71 60 71 65 71 69.83333587646484 C 71 74.66666412353516 71 79.33333587646484 71 85.16666412353516 C 71 91 71 98 71 108"/>
</g>
</g>
<g transform="matrix(-0.00000004371139024679, 0.999999999999999, -0.999999999999999, -0.00000004371139024679, 77.50000026226834, 128.0000001311342)">
<g fill-opacity="1" fill-rule="nonzero" stroke="none" fill="#000000">
  <path d="M 0 0 L 3.200000047683716 3 L 0 6 L 8 3 z"/>
</g>
</g>
<g transform="matrix(-0.00000004371139024679, 0.999999999999999, -0.999999999999999, -0.00000004371139024679, 77.50000026226834, 128.0000001311342)">
<g stroke-linejoin="round" stroke-linecap="butt" fill="none" stroke-opacity="1" stroke="#000000">
  <path d="M 0 0 L 3.200000047683716 3 L 0 6 L 8 3 z"/>
</g>
</g>
<g transform="matrix(1, 0, 0, 1, 80.5, 98)">
<clipPath id="clip5">
  <path d="M -80.5 -98 L -80.5 187 L 53.5 187 L 53.5 -98 z"/>
</clipPath>
<g clip-path="url(#clip5)">
<text fill-opacity="1" font-style="normal" font-family="Helvetica" font-weight="normal" stroke="none" fill="#000000" font-size="14.666666984558105px" x="0" y="0"><tspan x="0" dy="14.0">&#x00a0;</tspan>
</text>
</g>
</g>
<g transform="matrix(1, 0, 0, 1, 3.5, 28)">
<g stroke-linecap="round" fill="none" stroke-opacity="1" stroke="#000000">
  <path d="M 71 146 C 71 156 71 163 71 168.8333282470703 C 71 174.6666717529297 71 179.3333282470703 71 184.1666717529297 C 71 189 71 194 55.67060470581055 204.9750213623047"/>
</g>
</g>
<g transform="matrix(-0.7760677552240721, 0.6306495376209117, -0.6306495376209117, -0.7760677552240721, 67.27109525026357, 230.25802819139636)">
<g fill-opacity="1" fill-rule="nonzero" stroke="none" fill="#000000">
  <path d="M 0 0 L 3.200000047683716 3 L 0 6 L 8 3 z"/>
</g>
</g>
<g transform="matrix(-0.7760677552240721, 0.6306495376209117, -0.6306495376209117, -0.7760677552240721, 67.27109525026357, 230.25802819139636)">
<g stroke-linejoin="round" stroke-linecap="butt" fill="none" stroke-opacity="1" stroke="#000000">
  <path d="M 0 0 L 3.200000047683716 3 L 0 6 L 8 3 z"/>
</g>
</g>
<g transform="matrix(1, 0, 0, 1, 80.5, 194)">
<clipPath id="clip6">
  <path d="M -80.5 -194 L -80.5 91 L 53.5 91 L 53.5 -194 z"/>
</clipPath>
<g clip-path="url(#clip6)">
<text fill-opacity="1" font-style="normal" font-family="Helvetica" font-weight="normal" stroke="none" fill="#000000" font-size="14.666666984558105px" x="0" y="0"><tspan x="0" dy="14.0">&#x00a0;</tspan>
</text>
</g>
</g>
<g transform="matrix(1, 0, 0, 1, 3.5, 28)">
<g stroke-linecap="round" fill="none" stroke-opacity="1" stroke="#000000">
  <path d="M 37.32939529418945 204.9750213623047 C 22 194 22 189 22 184.1666717529297 C 22 179.3333282470703 22 174.6666717529297 22 170 C 22 165.3333282470703 22 160.6666717529297 22 148.6666717529297 C 22 136.6666717529297 22 117.33333587646484 22 105.33333587646484 C 22 93.33333587646484 22 88.66666412353516 22 84 C 22 79.33333587646484 22 74.66666412353516 22 69.83333587646484 C 22 65 22 60 40.33355712890625 49.02498245239258"/>
</g>
</g>
<g transform="matrix(0.8271324304219364, -0.5620070662761284, 0.5620070662761284, 0.8271324304219364, 35.530476462137315, 79.03964165518222)">
<g fill-opacity="1" fill-rule="nonzero" stroke="none" fill="#000000">
  <path d="M 0 0 L 3.200000047683716 3 L 0 6 L 8 3 z"/>
</g>
</g>
<g transform="matrix(0.8271324304219364, -0.5620070662761284, 0.5620070662761284, 0.8271324304219364, 35.530476462137315, 79.03964165518222)">
<g stroke-linejoin="round" stroke-linecap="butt" fill="none" stroke-opacity="1" stroke="#000000">
  <path d="M 0 0 L 3.200000047683716 3 L 0 6 L 8 3 z"/>
</g>
</g>
<g transform="matrix(1, 0, 0, 1, 15.5, 146)">
<clipPath id="clip7">
  <path d="M -15.5 -146 L -15.5 139 L 118.5 139 L 118.5 -146 z"/>
</clipPath>
<g clip-path="url(#clip7)">
<text fill-opacity="1" font-style="normal" font-family="Helvetica" font-weight="normal" stroke="none" fill="#000000" font-size="14.666666984558105px" x="0" y="0"><tspan x="0" dy="14.0">&#x00a0;</tspan>
</text>
</g>
</g>
</g>
</svg>
