<?xml version="1.0" encoding="UTF-8" standalone="no"?>
<!-- Created with Inkscape (http://www.inkscape.org/) -->

<svg
   width="3840"
   height="2160"
   viewBox="0 0 1016 571.5"
   version="1.1"
   id="svg5"
   xmlns="http://www.w3.org/2000/svg"
   xmlns:svg="http://www.w3.org/2000/svg">
  <defs
     id="defs2" />
  <g
     id="layer1">
    <rect
       style="fill:#2f2f2f;stroke-width:0.264583;fill-opacity:1"
       id="rect2532"
       width="1016"
       height="571.5"
       x="0"
       y="0" />
    <g
       id="layer1-5" />
    <path
       d="m -35.846163,464.00844 c -21.990707,27.75656 -29.946695,75.44779 0,106.5119 29.9466955,31.06411 79.64927,18.86195 114.73607,24.40432 35.086803,5.54238 78.353073,5.54238 87.202993,-43.26627 8.89461,-48.80864 -12.20217,-61.0108 -72.140252,-95.42715 -59.938087,-34.41635 -87.6052581,-45.5011 -129.798811,7.7772 z"
       style="fill:#5d2f82;fill-opacity:1;stroke-width:0.446966"
       id="path568" />
    <path
       d="m 93.456586,582.39558 c 23.837614,17.42695 31.036254,-4.31597 53.919924,-8.46078 23.87601,-4.44143 46.77281,16.08028 69.67248,2.82364 55.15436,-31.82688 23.79998,-108.09088 -25.39162,-124.33668 -9.86416,-3.22663 -23.19418,-7.29796 -33.37923,-2.28416 -13.44533,6.49176 -10.71735,23.44621 -17.30413,27.36967 -13.67386,8.0557 -23.53349,-2.33944 -40.11497,3.81621 -11.21557,4.09273 -3.852401,17.23318 -9.320819,22.56973 -8.327704,8.05703 -20.711838,2.59236 -27.957489,14.3686 -14.183216,22.60151 12.166642,51.25738 29.875854,64.13377 z"
       style="fill:#ec6508;fill-opacity:1;stroke:none;stroke-width:1.21222;stroke-opacity:1"
       id="path581" />
    <path
       d="m 807.96269,551.90449 c -0.59315,-7.00999 2.21084,-14.34351 6.90214,-19.46619 6.03937,-6.63253 13.69644,-8.19629 22.16234,-9.1669 9.70613,-1.18631 17.90242,-8.25022 20.38288,-17.74066 1.402,-5.33837 1.34808,-10.94636 1.29415,-16.4465 -0.0539,-11.9709 1.45592,-24.04965 12.34836,-31.00571 11.48559,-7.38744 23.83395,-0.80884 35.75093,-5.23053 8.73552,-3.23537 14.07389,-12.51012 16.17689,-21.1378 5.28445,-21.89272 1.67161,-46.48159 21.8388,-61.63395 11.32382,-8.51982 25.77517,-11.97089 39.52553,-7.54921 12.40228,3.9903 20.32899,15.58374 22.59369,28.03994 1.1863,6.5786 0.9706,13.53466 -0.5392,20.00542 -1.7255,7.2796 -4.5295,14.77489 -1.2942,22.10842 2.9119,6.52467 8.8434,11.43166 12.4563,17.63281 4.3138,7.2796 7.4413,15.20627 7.8188,23.7261 0.6471,15.36804 -7.6032,25.34379 -19.6819,33.54008 -6.68645,4.52953 -14.34351,9.32868 -15.90727,17.8485 -1.34808,7.44137 1.34807,14.72097 1.56376,22.10842 0.2157,5.82368 -1.07846,11.75521 -3.18145,17.1475 -4.20599,10.94636 -12.72582,19.9515 -24.10357,23.34865 -14.5592,4.42168 -30.03509,-2.103 -43.35406,-7.81883 -6.36291,-2.69615 -13.31897,-5.12269 -20.32896,-4.63738 -7.2796,0.48531 -13.80428,3.39715 -20.86818,5.06876 -17.14751,4.09814 -34.07932,4.25991 -50.25621,-3.34322 -8.84336,-4.15207 -17.57888,-11.53952 -20.49072,-21.24565 -0.43139,-1.34808 -0.64708,-2.75007 -0.80885,-4.15207 z"
       style="fill:#93245a;stroke:none;stroke-width:0.53923;stroke-opacity:1"
       id="path594" />
    <path
       d="m -39.623836,47.731771 c 4.971092,-0.06062 9.942184,0.303115 14.852653,1.091215 7.577885,1.151838 15.2770153,1.151838 22.8548997,0.06062 6.9716537,-1.091215 13.5795693,-3.334269 20.0662383,-6.001684 4.728599,-1.939939 7.820376,-5.5167 9.881561,-9.942185 2.606792,-5.637946 4.971092,-11.336515 7.274769,-17.095707 2.121807,-5.213584 3.75863,-10.609038 6.607915,-15.458884 3.879877,-6.8504075 9.4572,-12.6096 16.186361,-16.731969 4.971092,-2.97053 9.820938,-6.062307 14.79203,-9.093461 3.576762,-2.182431 7.577885,-3.394892 11.639631,-4.243615 9.942184,-2.061185 19.763118,-2.061185 29.644688,0.727477 11.63963,3.273646 22.97614,7.517261 33.94892,12.730845 8.12349,3.879877 14.9739,9.5784463 21.33932,15.8832461 3.51614,3.3948922 6.60791,7.2141459 9.15408,11.3971379 2.84929,4.7286 4.60736,10.063431 4.9711,15.58013 0.42436,5.941062 0.60623,11.8215 -1.15184,17.580692 -3.39489,11.215269 -9.76032,20.248107 -20.36936,25.582938 -4.00112,2.061184 -8.4266,3.455515 -12.79146,4.7286 -9.63907,2.849284 -18.73253,7.214146 -26.97727,12.973338 -6.24418,4.304238 -11.39714,9.820938 -16.42886,15.519505 -5.45607,6.24418 -10.73028,12.6096 -16.489472,18.55067 -8.305362,8.54785 -17.398823,16.24698 -27.886615,22.00617 -6.001684,3.27365 -12.185238,6.00169 -18.914399,7.15352 -11.700254,2.00057 -22.551784,0 -32.008984,-7.51726 -5.3348304,-4.18299 -10.42716873,-8.60847 -15.6407532,-12.85209 -4.6679768,-3.87987 -9.3359538,-7.69913 -14.8526538,-10.36654 -6.183553,-3.1524 -13.094584,-4.60736 -20.005614,-4.30424 -5.213585,0.30311 -10.427169,0.84872 -15.580131,1.27308 -5.759192,0.42436 -11.518384,0.42436 -17.216953,-0.84872 -10.124053,-2.18243 -16.186361,-8.60848 -19.035645,-18.308172 -2.54617,-8.911592 -1.273085,-17.580692 2.061184,-26.0073 1.636823,-4.122369 3.9405,-7.941622 6.789785,-11.275892 3.940499,-4.54673 9.032838,-7.153522 14.670784,-8.972215 6.244176,-2.000561 12.670222,-2.788661 19.156891,-3.213023 z"
       style="fill:#5a2778;stroke:none;stroke-width:1.63682;stroke-miterlimit:4;stroke-dasharray:none;stroke-opacity:1"
       id="path1214" />
    <path
       d="m 1035.9237,87.987695 c 0,11.58038 -6.5727,23.098165 -19.5302,27.667715 -17.90263,6.38486 -20.09351,22.5348 -18.02782,38.93512 2.75422,21.97142 -19.96833,39.49848 -40.31224,30.67235 -4.44436,-1.94049 -8.70093,-4.44436 -13.52088,-5.19552 -6.07187,-1.00154 -12.39413,0.43818 -18.5286,-0.50077 -21.40806,-3.38022 -37.93357,-6.51005 -47.63605,-28.0433 -7.63679,-16.90109 -6.94823,-37.80837 4.81994,-52.706375 6.51005,-8.074967 9.76508,-18.716397 9.76508,-29.608214 0,-11.2048 -3.38022,-22.722583 -10.20326,-32.11208 -7.07342,-9.89027 -10.20325,-21.09507 -10.20325,-31.7990966 0,-11.6429763 5.25812,-25.8524154 13.70867,-34.1777694 11.64297,-11.39259 28.10589,-4.632152 36.11826,7.887178 5.94668,9.389497 18.15303,15.7117581 29.29523,13.2078922 4.00619,-0.876353 7.76199,-2.5038662 11.58038,-3.8809922 14.9606,-5.320715 33.11363,1.50232 38.99774,16.7133048 3.5054,9.0765142 -0.1878,15.3987752 -1.1894,24.2874992 -1.50228,13.145296 4.9452,26.415785 17.2767,31.799097 11.7682,5.132925 17.5897,16.024741 17.5897,26.853961 z"
       style="fill:#ec6508;fill-opacity:1;stroke-width:0.625966"
       id="path1227" />
    <path
       d="M 115.87346,171.48954 C 95.251546,123.3939 70.904377,167.33189 57.899263,133.63834 44.894149,99.944781 76.824863,75.065434 118.23501,80.98592 c 27.1411,3.891556 75.73566,-56.810061 93.46386,-7.683328 17.7282,49.126738 -25.97697,52.985028 -31.93072,85.780528 -7.11788,39.01534 -53.25111,37.2525 -63.89469,12.40642 z"
       style="fill:#e53512;stroke-width:0.332612"
       id="path1201" />
    <path
       style="fill:#ffffff;fill-opacity:1;stroke:none;stroke-width:0.671959"
       d="m 355.73489,223.92977 c -2.15237,-1.99488 -4.64072,-3.82177 -7.29706,-5.31268 -2.82433,-1.6589 -5.64865,-2.99232 -8.79846,-4.15775 -3.14981,-1.15492 -6.6356,-1.98438 -10.12138,-2.64583 -3.48579,-0.50397 -7.13957,-0.82946 -10.79335,-0.82946 -6.63559,0 -12.44174,0.98694 -17.58642,2.98182 -5.14469,1.99488 -9.62792,4.80871 -13.1137,8.13701 -3.48579,3.3178 -6.14213,7.29705 -7.96902,11.61229 -1.82689,4.31523 -2.82432,8.63047 -2.82432,13.28169 0,5.63815 0.82945,10.28937 2.33085,14.11113 1.49091,3.97926 3.64328,7.12907 6.13163,9.78541 2.49885,2.48835 5.31268,4.65121 8.64097,6.14212 3.14981,1.6589 6.46761,2.99232 9.78541,3.97926 3.31779,1.16543 6.63559,2.16287 9.96389,2.99232 3.1498,0.82945 5.97413,1.82689 8.46248,2.99232 2.48835,1.15492 4.64072,2.64583 6.14213,4.47272 1.49091,1.82689 2.32035,3.98976 2.32035,6.81409 0,4.97669 -1.32291,8.46248 -4.14724,10.78284 -2.82433,2.16287 -6.80359,3.3178 -11.94827,3.3178 -3.82177,0 -6.97158,-0.49347 -9.79591,-1.6589 -2.82432,-0.99744 -5.14468,-2.15237 -7.30755,-3.48579 -2.15237,-1.16543 -4.14725,-2.32036 -5.80615,-3.48579 -1.65889,-0.99744 -3.31779,-1.49091 -4.97669,-1.49091 -1.33342,0 -2.48835,0.33598 -3.48579,0.99744 -1.16543,0.49347 -1.99488,1.32292 -2.65634,2.32036 l -8.29449,13.28169 c 2.32036,2.48835 5.14468,4.48323 8.46248,6.46761 3.14981,1.82688 6.6356,3.48578 10.28937,4.97669 3.65378,1.33342 7.30756,2.49885 11.28682,3.16031 3.81126,0.82945 7.63303,1.15493 11.4548,1.15493 6.80358,0 12.94571,-0.98694 18.41587,-3.14981 5.31268,-1.99488 9.9639,-4.80871 13.61767,-8.46248 3.64328,-3.65378 6.46761,-7.96902 8.46249,-12.77772 1.82688,-4.81921 2.82433,-10.13188 2.82433,-15.77004 0,-4.9767 -0.82946,-9.29193 -2.33086,-12.94571 -1.49091,-3.48579 -3.65378,-6.47811 -6.14213,-8.96645 -2.48834,-2.48835 -5.31267,-4.64072 -8.63047,-6.14213 -3.14981,-1.6589 -6.46761,-2.98182 -9.78541,-4.31524 -3.48578,-1.15492 -6.80358,-2.15237 -9.96389,-3.1498 -3.3178,-0.99745 -6.14212,-1.99488 -8.63047,-3.14981 -2.48835,-1.16543 -4.64072,-2.65634 -6.14213,-4.15775 -1.49091,-1.6589 -2.32035,-3.64328 -2.32035,-6.13162 0,-3.82177 1.32291,-6.81408 3.82176,-9.13445 2.64584,-2.15236 6.46761,-3.31779 11.78028,-3.31779 2.98182,0 5.80615,0.33598 8.12651,1.16543 2.33086,0.82944 4.48322,1.82689 6.31011,2.81383 1.82689,0.99743 3.48579,1.82689 4.9767,2.65633 1.50141,0.82945 2.82433,1.16543 4.15775,1.16543 1.4909,0 2.65634,-0.33598 3.48578,-0.99744 0.98694,-0.66145 1.8164,-1.6589 2.65634,-2.98182 z m 0,0"
       id="path458" />
    <path
       style="fill:#ffffff;fill-opacity:1;stroke:none;stroke-width:0.671959"
       d="m 372.1762,247.16485 v 86.13674 h 25.72343 v -86.13674 z m 27.55032,-29.5452 c -0.82945,-1.82689 -1.99488,-3.3178 -3.48579,-4.8192 -1.50141,-1.32292 -3.1603,-2.32037 -4.98719,-3.14981 -1.98438,-0.82945 -3.97926,-1.16543 -6.13163,-1.16543 -2.16287,0 -3.98976,0.33598 -5.81664,1.16543 -1.82689,0.82944 -3.48579,1.82689 -4.9767,3.14981 -1.32292,1.5014 -2.48835,2.99231 -3.3178,4.8192 -0.82945,1.82689 -1.16543,3.81127 -1.16543,5.97414 0,1.99488 0.33598,3.97925 1.16543,5.80614 0.82945,1.82689 1.99488,3.3178 3.3178,4.65122 1.49091,1.32292 3.14981,2.48834 4.9767,3.3178 1.82688,0.82944 3.65377,1.16542 5.81664,1.16542 2.15237,0 4.14725,-0.33598 6.13163,-1.16542 1.82689,-0.82946 3.48578,-1.99488 4.98719,-3.3178 1.49091,-1.33342 2.65634,-2.82433 3.48579,-4.65122 0.82945,-1.82689 1.15493,-3.81126 1.15493,-5.80614 0,-2.16287 -0.32548,-4.14725 -1.15493,-5.97414 z m 0,0"
       id="path462" />
    <path
       style="fill:#ffffff;fill-opacity:1;stroke:none;stroke-width:0.671959"
       d="m 435.0703,247.65831 c -4.31524,1.33342 -8.1265,3.14981 -11.27631,5.48067 -3.16031,2.48835 -5.64866,5.47017 -7.47555,8.79846 -1.82688,3.48579 -2.82432,7.46505 -2.82432,11.78029 0,5.14468 1.33342,9.7959 3.82176,13.60717 2.65634,3.98975 6.14213,7.13956 10.62536,9.45992 -1.99488,0.99744 -3.65378,2.16287 -5.14469,3.3178 -1.50141,1.16542 -2.65634,2.49884 -3.48579,3.82176 -0.99744,1.32292 -1.6589,2.65634 -2.16287,4.14725 -0.49347,1.49091 -0.66146,2.82433 -0.66146,3.98976 0,3.1498 0.66146,5.63815 1.82689,7.63303 1.16543,1.98438 2.65634,3.65378 4.64072,4.9767 -4.14725,1.49091 -7.29706,3.48578 -9.61741,6.14212 -2.33086,2.65634 -3.48579,5.80615 -3.48579,9.62791 0,2.98182 0.82945,5.80615 2.32036,8.46249 1.49091,2.65634 3.97925,5.14468 7.13956,7.13956 3.3178,2.15237 7.29706,3.81127 12.28425,5.14469 4.80871,1.15493 10.61485,1.82689 17.41844,1.82689 6.80358,0 12.94571,-0.82945 18.25839,-2.65634 5.31267,-1.6589 9.7959,-3.98976 13.44968,-6.97158 3.64327,-2.82432 6.4676,-6.14212 8.29449,-9.7959 1.82689,-3.81127 2.82433,-7.63303 2.82433,-11.4548 0,-4.14725 -0.82945,-7.63303 -2.33086,-10.28937 -1.49091,-2.65634 -3.47529,-4.80871 -5.97413,-6.46761 -2.48836,-1.6589 -5.30218,-2.82432 -8.46249,-3.48578 -3.3178,-0.66146 -6.46761,-1.16543 -9.7854,-1.50141 -3.3283,-0.32548 -6.6461,-0.49347 -9.79591,-0.49347 -3.31779,0 -6.14212,-0.16799 -8.63047,-0.33598 -2.48835,-0.32548 -4.48323,-0.82945 -5.97413,-1.32292 -1.50141,-0.66146 -2.33086,-1.82689 -2.33086,-3.3178 0,-1.33342 0.99744,-2.65634 2.82433,-3.82177 2.32035,0.33598 4.97669,0.50397 7.63303,0.50397 4.81921,0 9.45992,-0.67195 13.77516,-1.99487 4.15775,-1.16543 7.80102,-3.14981 10.96133,-5.48067 3.14981,-2.32036 5.63816,-5.31268 7.46504,-8.63047 1.82689,-3.48579 2.65635,-7.29706 2.65635,-11.61229 0,-2.65634 -0.33598,-5.14469 -1.16544,-7.63304 l 6.31012,-1.50141 c 1.99488,-0.49347 3.3178,-0.99744 4.14725,-1.98438 0.82945,-0.82945 1.16543,-1.99487 1.16543,-3.3283 v -9.61741 h -25.89143 c -2.82432,-1.33342 -5.80614,-2.33086 -9.13444,-2.99231 -3.14981,-0.82945 -6.63559,-1.16543 -10.28937,-1.16543 -4.9767,0 -9.62791,0.67196 -13.94315,1.99487 z m 32.20154,92.27888 c -0.49347,0.99743 -1.49091,1.99487 -2.98182,2.82432 -1.33342,0.66146 -3.3178,1.33342 -5.64866,1.82689 -2.32036,0.49347 -5.47016,0.66146 -9.12394,0.66146 -3.48579,0 -6.31012,-0.16799 -8.46249,-0.66146 -2.33085,-0.33598 -3.98975,-0.99744 -5.31267,-1.6589 -1.33342,-0.66146 -2.33086,-1.49091 -2.82433,-2.48835 -0.49347,-0.99743 -0.82945,-2.16286 -0.82945,-3.31779 0,-1.82689 0.49347,-3.3283 1.49091,-4.65122 0.99744,-1.33342 2.33086,-2.65634 3.98976,-3.65378 2.32036,0.50397 4.8087,0.66146 7.29705,0.66146 2.32036,0 4.65122,0 6.97158,0 2.32036,0 4.31523,0.16799 6.31011,0.33598 1.98438,0.16799 3.65378,0.66146 5.14469,1.16543 1.49091,0.49347 2.65634,1.15493 3.48579,1.98438 0.82944,0.82945 1.32291,1.99488 1.32291,3.3283 0,1.32292 -0.32548,2.48835 -0.82944,3.64328 z m -23.72856,-55.10064 c -1.50141,-0.66146 -2.65633,-1.49091 -3.65377,-2.48835 -0.99744,-0.99744 -1.82689,-2.16287 -2.32036,-3.48579 -0.50397,-1.49091 -0.67196,-2.99232 -0.67196,-4.65121 0,-3.48579 0.99744,-6.14213 2.82433,-8.12651 1.99487,-1.99488 4.97669,-2.99232 9.29193,-2.99232 4.31524,0 7.30755,0.99744 9.30243,2.99232 1.81639,1.98438 2.81383,4.64072 2.81383,8.12651 0,3.48578 -0.99744,6.14212 -2.81383,8.30499 -1.99488,2.15237 -4.98719,3.14981 -9.30243,3.14981 -2.15237,0 -3.97926,-0.33598 -5.47017,-0.82945 z m 0,0"
       id="path466" />
    <path
       style="fill:#ffffff;fill-opacity:1;stroke:none;stroke-width:0.671959"
       d="m 576.6498,333.30159 v -53.77772 c 0,-4.9767 -0.82945,-9.45992 -2.32036,-13.60717 -1.49091,-4.14725 -3.82176,-7.80103 -6.64609,-10.79334 -2.98182,-2.98182 -6.46761,-5.47017 -10.61486,-7.12907 -4.14724,-1.65889 -8.96645,-2.48834 -14.11114,-2.48834 -7.29705,0 -14.11114,1.15493 -20.41075,3.31779 -6.31012,2.32036 -12.11626,5.80615 -17.26095,10.28938 l 4.64072,8.1265 c 0.67196,1.33342 1.6589,2.33086 2.99232,3.16031 1.15493,0.82945 2.65633,1.32292 4.48322,1.32292 1.98438,0 3.64328,-0.32548 5.14469,-0.99744 1.49091,-0.66146 2.98182,-1.49091 4.48323,-2.32036 1.4909,-0.82945 3.1498,-1.49091 5.14468,-2.15237 1.98438,-0.67196 4.47273,-0.99744 7.46505,-0.99744 3.82176,0 6.80358,1.15493 8.79846,3.3178 2.15237,2.32036 3.14981,5.97413 3.14981,11.11882 v 3.65378 c -9.79591,0 -17.92241,0.82945 -24.40051,2.65634 -6.46761,1.82688 -11.6123,3.97925 -15.43406,6.63559 -3.81127,2.65634 -6.6356,5.48067 -8.12651,8.79846 -1.5014,3.14981 -2.33085,6.31012 -2.33085,9.45993 0,3.82176 0.67195,7.29705 1.82688,10.12138 1.16543,2.99232 2.99232,5.48067 5.14469,7.47554 2.33086,1.98438 4.9767,3.64328 8.30499,4.64072 3.14981,0.99744 6.6356,1.49091 10.61486,1.49091 2.99231,0 5.64865,-0.15749 7.96901,-0.66146 2.48835,-0.49347 4.65122,-1.15493 6.80358,-2.15237 2.16287,-0.99744 4.31524,-2.16287 6.31012,-3.65378 1.99488,-1.33341 3.97926,-2.99231 6.14212,-4.8087 l 1.82689,4.8087 c 0.82945,2.15237 1.82689,3.48579 3.14981,4.14725 1.16543,0.66146 2.99232,0.99744 5.48067,0.99744 z m -48.29706,-17.59693 c -1.65889,-1.15493 -2.48834,-3.1498 -2.48834,-6.14212 0,-1.49091 0.32548,-2.98182 1.16543,-4.14725 0.66146,-1.32292 1.98437,-2.48835 3.97925,-3.48579 1.99488,-0.99743 4.65122,-1.82688 7.96902,-2.48834 3.31779,-0.66146 7.46504,-0.99744 12.60973,-0.99744 v 11.79078 c -2.48835,2.65634 -4.9767,4.48322 -7.46505,5.63815 -2.48835,1.16543 -5.48066,1.6589 -8.79846,1.6589 -3.14981,0 -5.48067,-0.66146 -6.97158,-1.82689 z m 0,0"
       id="path470" />
    <path
       style="fill:#ffffff;fill-opacity:1;stroke:none;stroke-width:0.671959"
       d="m 653.33201,257.11824 c -1.6589,-1.6589 -3.48579,-3.14981 -5.48067,-4.48323 -2.15237,-1.49091 -4.48322,-2.65634 -6.97157,-3.64328 -2.65634,-0.99744 -5.31268,-1.82688 -8.2945,-2.33085 -2.82432,-0.49347 -5.80614,-0.82945 -8.96645,-0.82945 -5.63816,0 -10.61485,0.66146 -14.93009,2.16286 -4.31524,1.49091 -7.80102,3.48579 -10.62535,5.97414 -2.82433,2.48835 -4.9767,5.31268 -6.31012,8.63047 -1.4909,3.3178 -2.15236,6.80359 -2.15236,10.45737 0,3.97925 0.66146,7.29705 1.82688,9.95339 1.15493,2.82433 2.64584,5.14468 4.47273,7.13956 1.82689,1.82689 3.98976,3.48579 6.47811,4.65122 2.32035,1.32292 4.8087,2.32036 7.29705,3.14981 2.49885,0.99744 4.9872,1.82689 7.30756,2.48835 2.48834,0.66145 4.65121,1.32291 6.4676,2.16286 1.82689,0.82945 3.48579,1.81639 4.65122,2.81383 1.16543,1.16543 1.6589,2.65634 1.6589,4.31524 0,0.99744 -0.16799,1.82689 -0.49347,2.65634 -0.50397,0.99744 -0.99744,1.82688 -1.82689,2.48834 -0.82945,0.67196 -1.99488,1.33342 -3.3178,1.6589 -1.50141,0.50397 -3.16031,0.67196 -5.14469,0.67196 -2.82432,0 -5.14468,-0.33598 -6.97157,-0.99744 -1.82689,-0.66146 -3.48579,-1.33342 -4.81921,-2.16287 -1.49091,-0.82944 -2.81383,-1.4909 -3.97925,-2.15236 -1.16543,-0.66146 -2.48835,-0.99744 -3.98976,-0.99744 -1.6589,0 -2.81383,0.33598 -3.81127,0.99744 -0.99744,0.66146 -1.99488,1.49091 -2.65634,2.65633 l -5.97413,9.45993 c 1.6589,1.49091 3.65378,2.81383 5.97413,4.14724 2.32036,1.32292 4.80871,2.48835 7.63304,3.3178 2.65634,0.99744 5.48066,1.82689 8.46248,2.32036 2.99232,0.50397 5.81665,0.82945 8.79847,0.82945 5.80614,0 11.11882,-0.66146 15.60204,-2.15237 4.48323,-1.49091 8.305,-3.48579 11.28681,-6.14212 3.14981,-2.48835 5.48067,-5.63816 6.97158,-9.29194 1.49091,-3.48578 2.32036,-7.47554 2.32036,-11.79078 0,-3.48579 -0.49347,-6.4676 -1.6589,-8.95595 -1.15493,-2.48835 -2.65634,-4.65122 -4.48323,-6.31012 -1.98438,-1.82689 -4.14724,-3.1498 -6.4676,-4.48322 -2.32036,-1.15493 -4.81921,-2.15237 -7.30756,-2.98182 -2.48835,-0.99744 -4.97669,-1.82689 -7.29705,-2.48835 -2.33086,-0.67196 -4.48323,-1.50141 -6.31012,-2.33086 -1.99488,-0.66146 -3.48578,-1.6589 -4.65121,-2.65634 -1.15493,-1.15492 -1.6589,-2.48834 -1.6589,-3.97925 0,-2.32036 0.82945,-3.97926 2.65634,-5.31268 1.65889,-1.16543 4.15774,-1.82689 7.47554,-1.82689 2.32036,0 4.31524,0.33598 6.14213,0.82945 1.65889,0.50397 3.31779,0.99744 4.64071,1.6589 1.49091,0.67196 2.82433,1.16543 3.98976,1.6589 1.15493,0.50397 2.48835,0.82945 3.64328,0.82945 1.16543,0 2.16286,-0.15749 2.82432,-0.66146 0.82945,-0.49347 1.49091,-1.15493 2.16287,-2.15237 z m 0,0"
       id="path474" />
    <path
       style="fill:#ffffff;fill-opacity:1;stroke:none;stroke-width:0.671959"
       d="m 668.77152,247.16485 v 86.13674 h 25.72343 v -86.13674 z m 27.55032,-29.5452 c -0.82945,-1.82689 -1.99488,-3.3178 -3.48579,-4.8192 -1.50141,-1.32292 -3.1603,-2.32037 -4.98719,-3.14981 -1.98438,-0.82945 -3.97926,-1.16543 -6.13163,-1.16543 -2.16287,0 -3.98976,0.33598 -5.81664,1.16543 -1.82689,0.82944 -3.48579,1.82689 -4.9767,3.14981 -1.32292,1.5014 -2.48835,2.99231 -3.3178,4.8192 -0.82945,1.82689 -1.16543,3.81127 -1.16543,5.97414 0,1.99488 0.33598,3.97925 1.16543,5.80614 0.82945,1.82689 1.99488,3.3178 3.3178,4.65122 1.49091,1.32292 3.14981,2.48834 4.9767,3.3178 1.82688,0.82944 3.65377,1.16542 5.81664,1.16542 2.15237,0 4.14725,-0.33598 6.13163,-1.16542 1.82689,-0.82946 3.48578,-1.99488 4.98719,-3.3178 1.49091,-1.33342 2.65634,-2.82433 3.48579,-4.65122 0.82945,-1.82689 1.15493,-3.81126 1.15493,-5.80614 0,-2.16287 -0.32548,-4.14725 -1.15493,-5.97414 z m 0,0"
       id="path478" />
    <path
       d="m 715.02715,323.383 c 0.62471,1.62215 1.49353,3.06319 2.60121,4.32836 1.10768,1.26518 2.45685,2.28099 4.0475,3.05007 1.59066,0.7717 3.37818,1.23629 5.3678,1.40166 -0.39635,1.53816 -0.99219,2.98182 -1.78751,4.32836 -0.79795,1.34654 -1.63528,2.59859 -2.5146,3.75089 -0.88195,1.15493 -1.77702,2.21275 -2.68521,3.17607 -0.91082,0.96068 -1.70352,1.77176 -2.38598,2.43322 -0.56959,0.49347 -1.05256,1.05518 -1.44892,1.68777 -0.39897,0.63259 -0.59583,1.22318 -0.59583,1.77439 0,1.42791 0.62471,2.63797 1.87414,3.62753 l 4.60134,3.95826 c 3.46478,-2.47523 6.53322,-5.22343 9.20531,-8.24462 2.66946,-3.02381 4.90058,-6.10276 6.69072,-9.23681 1.79014,-3.13143 3.13931,-6.25237 4.0475,-9.35756 0.90819,-3.10518 1.36492,-6.03188 1.36492,-8.78009 0,-2.08937 -0.29923,-4.08162 -0.89507,-5.97938 -0.59584,-1.89514 -1.52241,-3.57241 -2.77183,-5.0292 -1.24942,-1.45415 -2.8112,-2.60908 -4.68534,-3.46216 -1.87676,-0.85045 -4.09213,-1.2783 -6.64872,-1.2783 -2.16024,0 -4.10525,0.33073 -5.83765,0.98957 -1.73502,0.65883 -3.23905,1.5539 -4.51734,2.67996 -1.2783,1.12606 -2.25737,2.44635 -2.93982,3.95826 -0.68246,1.51191 -1.02369,3.14718 -1.02369,4.90583 0,1.924 0.31235,3.69577 0.93707,5.31792 z m -0.46722,-54.49955 c 0.76645,1.72977 1.81638,3.22855 3.15242,4.49111 1.33605,1.26517 2.91096,2.25473 4.72997,2.96868 1.81901,0.71659 3.80602,1.07357 5.96626,1.07357 2.1025,0 4.06062,-0.35698 5.87964,-1.07357 1.81901,-0.71395 3.40967,-1.70351 4.77458,-2.96868 1.3623,-1.26256 2.42798,-2.76134 3.19444,-4.49111 0.76907,-1.73239 1.1523,-3.58815 1.1523,-5.56728 0,-1.97914 -0.38323,-3.81915 -1.1523,-5.52266 -0.76646,-1.70353 -1.83214,-3.18919 -3.19444,-4.45436 -1.36491,-1.26255 -2.95557,-2.26523 -4.77458,-3.00806 -1.81902,-0.74284 -3.77714,-1.11294 -5.87964,-1.11294 -2.16024,0 -4.14725,0.3701 -5.96626,1.11294 -1.81901,0.74283 -3.39392,1.74551 -4.72997,3.00806 -1.33604,1.26517 -2.38597,2.75083 -3.15242,4.45436 -0.76908,1.70351 -1.15231,3.54352 -1.15231,5.52266 0,1.97913 0.38323,3.83489 1.15231,5.56728"
       id="path88-7"
       style="stroke-width:0.671959;fill:#ffffff" />
  </g>
</svg>
