<?xml version="1.0" encoding="UTF-8" standalone="no"?>
<!-- Created with Inkscape (http://www.inkscape.org/) -->

<svg
   width="16"
   height="16"
   viewBox="0 0 4.2333328 4.2333328"
   version="1.1"
   id="svg1"
   inkscape:version="1.3.2 (091e20ef0f, 2023-11-25)"
   sodipodi:docname="show-fields-light-16x16.svg"
   xmlns:inkscape="http://www.inkscape.org/namespaces/inkscape"
   xmlns:sodipodi="http://sodipodi.sourceforge.net/DTD/sodipodi-0.dtd"
   xmlns="http://www.w3.org/2000/svg"
   xmlns:svg="http://www.w3.org/2000/svg">
  <sodipodi:namedview
     id="namedview1"
     pagecolor="#ffffff"
     bordercolor="#666666"
     borderopacity="1.0"
     inkscape:showpageshadow="2"
     inkscape:pageopacity="0.0"
     inkscape:pagecheckerboard="0"
     inkscape:deskcolor="#d1d1d1"
     inkscape:document-units="px"
     showgrid="true"
     inkscape:zoom="64"
     inkscape:cx="4.1953125"
     inkscape:cy="8.2421875"
     inkscape:window-width="2556"
     inkscape:window-height="1436"
     inkscape:window-x="0"
     inkscape:window-y="0"
     inkscape:window-maximized="1"
     inkscape:current-layer="layer1">
    <inkscape:grid
       id="grid1"
       units="px"
       originx="0"
       originy="0"
       spacingx="0.13229165"
       spacingy="0.13229165"
       empcolor="#0099e5"
       empopacity="0.60392157"
       color="#0099e5"
       opacity="0.14901961"
       empspacing="2"
       dotted="false"
       gridanglex="30"
       gridanglez="30"
       visible="true" />
  </sodipodi:namedview>
  <defs
     id="defs1" />
  <g
     inkscape:label="Layer 1"
     inkscape:groupmode="layer"
     id="layer1">
    <path
       id="path1"
       style="fill:#424242;stroke:none;stroke-width:0.264583px;stroke-linecap:butt;stroke-linejoin:miter;stroke-opacity:1;fill-opacity:1"
       d="M 0.39687495 0.7937499 L 0.2645833 0.92604155 L 0.2645833 1.9843748 L 0.39687495 2.1166664 L 1.4552082 2.1166664 L 1.5874998 1.9843748 L 1.5874998 1.5880166 L 2.3807329 1.5880166 L 2.3807329 2.5300778 L 1.8520831 3.0587276 L 1.8520831 3.2457963 L 2.2262204 3.6199336 L 2.4132891 3.6199336 L 2.9744951 3.0587276 L 2.9744951 2.871659 L 2.6463498 2.5435137 L 2.6463498 1.5880166 L 3.4395829 1.5880166 L 3.4395829 2.645833 L 3.3072913 2.645833 L 3.1749996 2.7781247 L 3.1749996 3.3072913 L 3.3072913 3.4395829 L 3.8364579 3.4395829 L 3.9687495 3.3072913 L 3.9687495 2.7781247 L 3.8364579 2.645833 L 3.7051997 2.645833 L 3.7051997 1.4552082 L 3.5723913 1.3223997 L 2.6463498 1.3223997 L 2.5135414 1.3223997 L 1.5874998 1.3223997 L 1.5874998 0.92604155 L 1.4552082 0.7937499 L 0.39687495 0.7937499 z M 0.5291666 1.0583332 L 1.3229165 1.0583332 L 1.3229165 1.8520831 L 0.5291666 1.8520831 L 0.5291666 1.0583332 z M 2.5068234 2.7781247 L 2.6938921 2.9651933 L 2.3197548 3.3393306 L 2.1326861 3.152262 L 2.5068234 2.7781247 z M 3.4395829 2.9104163 L 3.7041662 2.9104163 L 3.7041662 3.1749996 L 3.4395829 3.1749996 L 3.4395829 2.9104163 z " />
  </g>
</svg>
