<?xml version="1.0" encoding="UTF-8" standalone="no"?>
<!-- Created with Inkscape (http://www.inkscape.org/) -->

<svg
   width="7.1437511mm"
   height="7.1437507mm"
   viewBox="0 0 7.1437512 7.1437506"
   version="1.1"
   id="svg1"
   xml:space="preserve"
   inkscape:version="1.3 (0e150ed6c4, 2023-07-21)"
   sodipodi:docname="drawing.svg"
   xmlns:inkscape="http://www.inkscape.org/namespaces/inkscape"
   xmlns:sodipodi="http://sodipodi.sourceforge.net/DTD/sodipodi-0.dtd"
   xmlns="http://www.w3.org/2000/svg"
   xmlns:svg="http://www.w3.org/2000/svg"><sodipodi:namedview
     id="namedview1"
     pagecolor="#ffffff"
     bordercolor="#666666"
     borderopacity="1.0"
     inkscape:showpageshadow="2"
     inkscape:pageopacity="0.0"
     inkscape:pagecheckerboard="false"
     inkscape:deskcolor="#d1d1d1"
     inkscape:document-units="px"
     showgrid="true"
     inkscape:zoom="16"
     inkscape:cx="35"
     inkscape:cy="44.0625"
     inkscape:window-width="1758"
     inkscape:window-height="1438"
     inkscape:window-x="800"
     inkscape:window-y="0"
     inkscape:window-maximized="1"
     inkscape:current-layer="layer1"
     showguides="true"><inkscape:grid
       id="grid1"
       units="px"
       originx="9.0000019"
       originy="-9.0000009"
       spacingx="0.26458333"
       spacingy="0.26458334"
       empcolor="#0099e5"
       empopacity="0.30196078"
       color="#0099e5"
       opacity="0.14901961"
       empspacing="5"
       dotted="false"
       gridanglex="30"
       gridanglez="30"
       visible="true" /></sodipodi:namedview><defs
     id="defs1" /><g
     inkscape:label="Layer 1"
     inkscape:groupmode="layer"
     id="layer1"
     transform="translate(2.3812504,-2.3812502)"><rect
       style="fill:#ffffff;fill-opacity:1;stroke:#ffffff;stroke-width:0.793751;stroke-linecap:round;stroke-dasharray:none;stroke-opacity:1;paint-order:stroke markers fill"
       id="rect2"
       width="6.3499999"
       height="6.3499999"
       x="-1.9843749"
       y="2.7781255"
       inkscape:export-filename="rect2.png"
       inkscape:export-xdpi="127.99998"
       inkscape:export-ydpi="127.99998" /><rect
       style="fill:#ffffff;fill-opacity:1;stroke:#ffffff;stroke-width:0.793751;stroke-linecap:round;stroke-dasharray:none;stroke-opacity:1;paint-order:stroke markers fill"
       id="rect5"
       width="6.3499999"
       height="6.3499999"
       x="5.1593752"
       y="-4.3656249" /><rect
       style="fill:#ffffff;fill-opacity:1;stroke:#ffffff;stroke-width:0.793751;stroke-linecap:round;stroke-dasharray:none;stroke-opacity:1;paint-order:stroke markers fill"
       id="rect6"
       width="6.3499999"
       height="6.3499999"
       x="5.1593752"
       y="2.7781255" /><path
       style="color:#000000;fill:#c5c5c5;fill-opacity:1;stroke-width:1.5;stroke-linejoin:bevel;-inkscape-stroke:none"
       d="m -1.388086,3.5724606 -0.1992188,0.1992187 v 3.1728516 l 0.1992188,0.1992188 h 0.59472647 v 0.9931641 l 0.19921875,0.1962891 H 3.7710937 L 3.9673828,8.1369138 V 5.1603513 L 3.7710937,4.9611325 H 3.1763671 V 4.1671872 L 2.9771483,3.9679684 H 0.67734367 L 0.33749992,3.6310543 0.19980457,3.5724606 Z m 0.196289,0.3955078 h 1.30664067 l 0.33984375,0.3398438 0.140625,0.058594 H 2.7779296 V 5.1603513 L 2.9771483,5.3566402 H 3.5718749 V 7.937695 H -0.39785168 V 6.9445309 L -0.59414078,6.7482418 H -1.191797 Z"
       id="path10" /><path
       style="color:#000000;fill:#c5c5c5;fill-opacity:1;stroke-width:1.5;stroke-linejoin:bevel;-inkscape-stroke:none"
       d="M -0.59414078,4.562695 -0.79335953,4.7619138 V 4.9611325 H -1.388086 v 0.3955077 h 0.79394522 l 0.1962891,-0.1962889 V 4.9611325 h 1.3066407 l 0.33984378,0.3398438 0.140625,0.055663 H 2.9771483 V 4.9611325 H 1.471289 L 1.1314453,4.6212888 0.99082027,4.562695 Z"
       id="path11" /><path
       style="color:#000000;fill:#c5c5c5;fill-opacity:1;stroke-width:1.5;stroke-linejoin:bevel;-inkscape-stroke:none"
       d="m -0.79335953,4.9611325 v 1.9833984 h 0.39550785 V 4.9611325 Z"
       id="path12" /><path
       style="color:#000000;fill:#c5c5c5;fill-opacity:1;stroke-width:1.5;stroke-linejoin:bevel;-inkscape-stroke:none"
       d="M 0.99082027,5.8693356 0.85312492,5.9279293 0.51328117,6.2648434 h -1.10742195 v 0.3984375 h 1.1894532 L 0.73593742,6.6046872 1.0757812,6.2648434 H 3.7710937 V 5.8693356 Z"
       id="path13" /><rect
       style="fill:#ffffff;fill-opacity:1;stroke:#ffffff;stroke-width:0.793751;stroke-linecap:round;stroke-dasharray:none;stroke-opacity:1;paint-order:stroke markers fill"
       id="rect44"
       width="6.3499999"
       height="6.3499999"
       x="-1.9843749"
       y="2.7781255" /><path
       style="color:#000000;fill:#c5c5c5;fill-opacity:1;stroke-width:1.5;stroke-linejoin:bevel;-inkscape-stroke:none"
       d="m -1.388086,3.5724606 -0.1992188,0.1992187 v 3.1728516 l 0.1992188,0.1992188 h 0.59472647 v 0.9931641 l 0.19921875,0.1962891 H 3.7710937 L 3.9673828,8.1369138 V 5.1603513 L 3.7710937,4.9611325 H 3.1763671 V 4.1671872 L 2.9771483,3.9679684 H 0.67734367 L 0.33749992,3.6310543 0.19980457,3.5724606 Z m 0.196289,0.3955078 h 1.30664067 l 0.33984375,0.3398438 0.140625,0.058594 H 2.7779296 V 5.1603513 L 2.9771483,5.3566402 H 3.5718749 V 7.937695 H -0.39785168 V 6.9445309 L -0.59414078,6.7482418 H -1.191797 Z"
       id="path44" /><path
       style="color:#000000;fill:#c5c5c5;fill-opacity:1;stroke-width:1.5;stroke-linejoin:bevel;-inkscape-stroke:none"
       d="M -0.59414078,4.562695 -0.79335953,4.7619138 V 4.9611325 H -1.388086 v 0.3955077 h 0.79394522 l 0.1962891,-0.1962889 V 4.9611325 h 1.3066407 l 0.33984378,0.3398438 0.140625,0.055663 H 2.9771483 V 4.9611325 H 1.471289 L 1.1314453,4.6212888 0.99082027,4.562695 Z"
       id="path45" /><path
       style="color:#000000;fill:#c5c5c5;fill-opacity:1;stroke-width:1.5;stroke-linejoin:bevel;-inkscape-stroke:none"
       d="m -0.79335953,4.9611325 v 1.9833984 h 0.39550785 V 4.9611325 Z"
       id="path46" /><path
       style="color:#000000;fill:#c5c5c5;fill-opacity:1;stroke-width:1.5;stroke-linejoin:bevel;-inkscape-stroke:none"
       d="M 0.99082027,5.8693356 0.85312492,5.9279293 0.51328117,6.2648434 h -1.10742195 v 0.3984375 h 1.1894532 L 0.73593742,6.6046872 1.0757812,6.2648434 H 3.7710937 V 5.8693356 Z"
       id="path47" /></g></svg>
