<?xml version="1.0" encoding="UTF-8" standalone="no"?>
<!-- Created with Inkscape (http://www.inkscape.org/) -->

<svg
   width="16"
   height="16"
   viewBox="0 0 4.2333328 4.2333328"
   version="1.1"
   id="svg1"
   inkscape:version="1.3.2 (091e20ef0f, 2023-11-25)"
   sodipodi:docname="hide-inherited-members-light-16x16.svg"
   xmlns:inkscape="http://www.inkscape.org/namespaces/inkscape"
   xmlns:sodipodi="http://sodipodi.sourceforge.net/DTD/sodipodi-0.dtd"
   xmlns="http://www.w3.org/2000/svg"
   xmlns:svg="http://www.w3.org/2000/svg">
  <sodipodi:namedview
     id="namedview1"
     pagecolor="#ffffff"
     bordercolor="#666666"
     borderopacity="1.0"
     inkscape:showpageshadow="2"
     inkscape:pageopacity="0.0"
     inkscape:pagecheckerboard="0"
     inkscape:deskcolor="#d1d1d1"
     inkscape:document-units="px"
     showgrid="true"
     inkscape:zoom="64"
     inkscape:cx="6.6953125"
     inkscape:cy="7.3203125"
     inkscape:window-width="2556"
     inkscape:window-height="1436"
     inkscape:window-x="0"
     inkscape:window-y="0"
     inkscape:window-maximized="1"
     inkscape:current-layer="layer1">
    <inkscape:grid
       id="grid1"
       units="px"
       originx="0"
       originy="0"
       spacingx="0.13229165"
       spacingy="0.13229165"
       empcolor="#0099e5"
       empopacity="0.60392157"
       color="#0099e5"
       opacity="0.14901961"
       empspacing="2"
       dotted="false"
       gridanglex="30"
       gridanglez="30"
       visible="true" />
  </sodipodi:namedview>
  <defs
     id="defs1" />
  <g
     inkscape:label="Layer 1"
     inkscape:groupmode="layer"
     id="layer1">
    <path
       id="path1"
       style="fill:#424242;fill-opacity:1;stroke:none;stroke-width:0.264583px;stroke-linecap:butt;stroke-linejoin:miter;stroke-opacity:1"
       d="M 0.66145825,0.2645833 0.5291666,0.39687495 V 1.4552082 L 0.66145825,1.5874998 H 1.1022582 L 0.92604155,1.8520831 H 1.0583332 V 2.3812497 H 0.66145825 L 0.5291666,2.5135414 V 3.5718746 L 0.66145825,3.7041662 H 1.7197915 L 1.8520831,3.5718746 V 2.9098995 h 1.32395 V 3.1749996 H 3.042708 L 2.9104163,3.3072913 V 3.8364579 L 3.042708,3.9687495 H 3.5718746 L 3.7041662,3.8364579 V 3.3072913 L 3.5718746,3.1749996 H 3.4395829 V 2.7770911 L 3.3067745,2.6463498 H 1.8520831 V 2.5135414 L 1.7197915,2.3812497 H 1.3229165 V 1.8520831 H 1.4552082 L 1.2789915,1.5874998 h 0.4408 L 1.8520831,1.4552082 V 0.39687495 L 1.7197915,0.2645833 Z M 0.7937499,0.5291666 H 1.5874998 V 1.3229165 H 0.7937499 Z m 0,2.1166664 H 1.5874998 V 3.4395829 H 0.7937499 Z M 3.1749996,3.4395829 H 3.4395829 V 3.7041662 H 3.1749996 Z"
       sodipodi:nodetypes="ccccccccccccccccccccccccccccccccccccccccccccccccccccccc" />
  </g>
</svg>
