<svg xmlns="http://www.w3.org/2000/svg" id="sprotty_Ir" class="sprotty-graph sprotty-block-diagram blockdiagram" style="font-family:&quot;Helvetica Neue&quot;, Helvetica, Arial, sans-serif;perspective-origin:0px 0px;transform-origin:0px 0px;" version="1.1" viewBox="9.5 12 314.3319836425781 328.8384008407593"><g transform="scale(1) translate(0,0)"><g id="sprotty_ArchitectureBlockImpl$Ir" transform="translate(12, 12)" class="architecture"><g class="sprotty-block" style="fill:rgb(245, 245, 245);stroke:rgb(48, 48, 48);stroke-dasharray:0px;"><rect x="0" y="0" rx="1" ry="1" width="307.5019836425781" height="328.8384008407593"/><path d="M149.08 16L151.45 16L151.45 4.16L149.08 4.16ZM154.17 16L156.50 16L156.50 10.66C157.01 9.36 157.86 8.90 158.57 8.90C158.93 8.90 159.19 8.94 159.49 9.04L159.91 7.01C159.64 6.90 159.35 6.82 158.85 6.82C157.93 6.82 156.97 7.46 156.31 8.62L156.25 8.62L156.09 7.04L154.17 7.04Z" class="sprotty-block-name" style="fill:rgb(48, 48, 48);stroke:rgba(0, 0, 0, 0);"/><line x1="0" y1="20" x2="307.5019836425781" y2="20"/></g><g id="sprotty_ArchitectureBlockImpl$Ir/BPortImpl$clk_to_ArchitectureBlockImpl$Ir/AlwaysBlockImpl$null16/GPortImpl$clk" class="sprotty-edge edge" style="fill:none;stroke:rgb(112, 112, 112);stroke-linejoin:round;"><g><path d="M 0 262.9813013076782 L 106.21900177001953 262.9813013076782 C 107.21900177001953 262.9813013076782 108.21900177001953 261.9813013076782 108.21900177001953 260.9813013076782 L 108.21900177001953 112.20850086212158 C 108.21900177001953 111.20850086212158 109.21900177001953 110.20850086212158 110.21900177001953 110.20850086212158 L 138.21900177001953 110.20850086212158 "/><path d="M 0 262.9813013076782 L 106.21900177001953 262.9813013076782 C 107.21900177001953 262.9813013076782 108.21900177001953 261.9813013076782 108.21900177001953 260.9813013076782 L 108.21900177001953 112.20850086212158 C 108.21900177001953 111.20850086212158 109.21900177001953 110.20850086212158 110.21900177001953 110.20850086212158 L 138.21900177001953 110.20850086212158 " class="clickable" style="cursor:pointer;stroke:rgba(0, 0, 0, 0);stroke-opacity:0;stroke-width:5px;"/></g><circle r="2" id="sprotty_ArchitectureBlockImpl$Ir/BPortImpl$clk_to_ArchitectureBlockImpl$Ir/AlwaysBlockImpl$null16/GPortImpl$clk/junction0" transform="translate(108.21900177001953, 262.9813013076782)" class="sprotty-junction junction" style="fill:rgb(112, 112, 112);stroke:none;"/></g><g id="sprotty_ArchitectureBlockImpl$Ir/BPortImpl$rst_to_ArchitectureBlockImpl$Ir/AlwaysBlockImpl$null16/GPortImpl$rst" class="sprotty-edge edge" style="fill:none;stroke:rgb(112, 112, 112);stroke-linejoin:round;"><g><path d="M 0 163.83840084075928 L 126.21900177001953 163.83840084075928 C 127.21900177001953 163.83840084075928 128.21900177001953 162.83840084075928 128.21900177001953 161.83840084075928 L 128.21900177001953 88.20850086212158 C 128.21900177001953 87.20850086212158 129.21900177001953 86.20850086212158 130.21900177001953 86.20850086212158 L 138.21900177001953 86.20850086212158 "/><path d="M 0 163.83840084075928 L 126.21900177001953 163.83840084075928 C 127.21900177001953 163.83840084075928 128.21900177001953 162.83840084075928 128.21900177001953 161.83840084075928 L 128.21900177001953 88.20850086212158 C 128.21900177001953 87.20850086212158 129.21900177001953 86.20850086212158 130.21900177001953 86.20850086212158 L 138.21900177001953 86.20850086212158 " class="clickable" style="cursor:pointer;stroke:rgba(0, 0, 0, 0);stroke-opacity:0;stroke-width:5px;"/></g><circle r="2" id="sprotty_ArchitectureBlockImpl$Ir/BPortImpl$rst_to_ArchitectureBlockImpl$Ir/AlwaysBlockImpl$null16/GPortImpl$rst/junction0" transform="translate(128.21900177001953, 163.83840084075928)" class="sprotty-junction junction" style="fill:rgb(112, 112, 112);stroke:none;"/></g><g id="sprotty_ArchitectureBlockImpl$Ir/BPortImpl$imem_to_ir_to_ArchitectureBlockImpl$Ir/AlwaysBlockImpl$null16/GPortImpl$imem_to_ir" class="sprotty-edge thick edge" style="fill:none;stroke:rgb(112, 112, 112);stroke-linejoin:round;stroke-width:3px;"><g><path d="M 0 233.83840084075928 L 116.21900177001953 233.83840084075928 C 117.21900177001953 233.83840084075928 118.21900177001953 232.83840084075928 118.21900177001953 231.83840084075928 L 118.21900177001953 100.20850086212158 C 118.21900177001953 99.20850086212158 119.21900177001953 98.20850086212158 120.21900177001953 98.20850086212158 L 138.21900177001953 98.20850086212158 "/><path d="M 0 233.83840084075928 L 116.21900177001953 233.83840084075928 C 117.21900177001953 233.83840084075928 118.21900177001953 232.83840084075928 118.21900177001953 231.83840084075928 L 118.21900177001953 100.20850086212158 C 118.21900177001953 99.20850086212158 119.21900177001953 98.20850086212158 120.21900177001953 98.20850086212158 L 138.21900177001953 98.20850086212158 " class="clickable" style="cursor:pointer;stroke:rgba(0, 0, 0, 0);stroke-opacity:0;stroke-width:7px;"/></g><circle r="3" id="sprotty_ArchitectureBlockImpl$Ir/BPortImpl$imem_to_ir_to_ArchitectureBlockImpl$Ir/AlwaysBlockImpl$null16/GPortImpl$imem_to_ir/junction0" transform="translate(118.21900177001953, 233.83840084075928)" class="sprotty-junction thick" style="fill:rgb(112, 112, 112);stroke:none;"/></g><g id="sprotty_ArchitectureBlockImpl$Ir/BPortImpl$IRWrite_to_ArchitectureBlockImpl$Ir/AlwaysBlockImpl$null16/GPortImpl$IRWrite" class="sprotty-edge edge" style="fill:none;stroke:rgb(112, 112, 112);stroke-linejoin:round;"><g><path d="M 0 74.20850086212158 L 138.21900177001953 74.20850086212158 "/><path d="M 0 74.20850086212158 L 138.21900177001953 74.20850086212158 " class="clickable" style="cursor:pointer;stroke:rgba(0, 0, 0, 0);stroke-opacity:0;stroke-width:5px;"/></g></g><g id="sprotty_ArchitectureBlockImpl$Ir/BPortImpl$Opcode_to_ArchitectureBlockImpl$Ir/AlwaysBlockImpl$null16/GPortImpl$Opcode" class="sprotty-edge thick edge" style="fill:none;stroke:rgb(112, 112, 112);stroke-linejoin:round;stroke-width:3px;"><g><path d="M 307.5019836425781 118.6249008178711 L 193.01039123535156 118.6249008178711 C 192.01039123535156 118.6249008178711 191.01039123535156 117.6249008178711 191.01039123535156 116.6249008178711 L 191.01039123535156 104.20850086212158 C 191.01039123535156 103.20850086212158 190.01039123535156 102.20850086212158 189.01039123535156 102.20850086212158 L 171.01039123535156 102.20850086212158 "/><path d="M 307.5019836425781 118.6249008178711 L 193.01039123535156 118.6249008178711 C 192.01039123535156 118.6249008178711 191.01039123535156 117.6249008178711 191.01039123535156 116.6249008178711 L 191.01039123535156 104.20850086212158 C 191.01039123535156 103.20850086212158 190.01039123535156 102.20850086212158 189.01039123535156 102.20850086212158 L 171.01039123535156 102.20850086212158 " class="clickable" style="cursor:pointer;stroke:rgba(0, 0, 0, 0);stroke-opacity:0;stroke-width:7px;"/></g></g><g id="sprotty_ArchitectureBlockImpl$Ir/BPortImpl$rs_to_ArchitectureBlockImpl$Ir/AlwaysBlockImpl$null16/GPortImpl$rs" class="sprotty-edge thick edge" style="fill:none;stroke:rgb(112, 112, 112);stroke-linejoin:round;stroke-width:3px;"><g><path d="M 307.5019836425781 149.2574005126953 L 183.01039123535156 149.2574005126953 C 182.01039123535156 149.2574005126953 181.01039123535156 148.2574005126953 181.01039123535156 147.2574005126953 L 181.01039123535156 114.20850086212158 C 181.01039123535156 113.20850086212158 180.01039123535156 112.20850086212158 179.01039123535156 112.20850086212158 L 171.01039123535156 112.20850086212158 "/><path d="M 307.5019836425781 149.2574005126953 L 183.01039123535156 149.2574005126953 C 182.01039123535156 149.2574005126953 181.01039123535156 148.2574005126953 181.01039123535156 147.2574005126953 L 181.01039123535156 114.20850086212158 C 181.01039123535156 113.20850086212158 180.01039123535156 112.20850086212158 179.01039123535156 112.20850086212158 L 171.01039123535156 112.20850086212158 " class="clickable" style="cursor:pointer;stroke:rgba(0, 0, 0, 0);stroke-opacity:0;stroke-width:7px;"/></g></g><g id="sprotty_ArchitectureBlockImpl$Ir/BPortImpl$rt_to_ArchitectureBlockImpl$Ir/AlwaysBlockImpl$null16/GPortImpl$rt" class="sprotty-edge thick edge" style="fill:none;stroke:rgb(112, 112, 112);stroke-linejoin:round;stroke-width:3px;"><g><path d="M 307.5019836425781 92.20850086212158 L 171.01039123535156 92.20850086212158 "/><path d="M 307.5019836425781 92.20850086212158 L 171.01039123535156 92.20850086212158 " class="clickable" style="cursor:pointer;stroke:rgba(0, 0, 0, 0);stroke-opacity:0;stroke-width:7px;"/></g></g><g id="sprotty_ArchitectureBlockImpl$Ir/BPortImpl$rd_to_ArchitectureBlockImpl$Ir/AlwaysBlockImpl$null16/GPortImpl$rd" class="sprotty-edge thick edge" style="fill:none;stroke:rgb(112, 112, 112);stroke-linejoin:round;stroke-width:3px;"><g><path d="M 307.5019836425781 35 L 183.01039123535156 35 C 182.01039123535156 35 181.01039123535156 36 181.01039123535156 37 L 181.01039123535156 70.20850086212158 C 181.01039123535156 71.20850086212158 180.01039123535156 72.20850086212158 179.01039123535156 72.20850086212158 L 171.01039123535156 72.20850086212158 "/><path d="M 307.5019836425781 35 L 183.01039123535156 35 C 182.01039123535156 35 181.01039123535156 36 181.01039123535156 37 L 181.01039123535156 70.20850086212158 C 181.01039123535156 71.20850086212158 180.01039123535156 72.20850086212158 179.01039123535156 72.20850086212158 L 171.01039123535156 72.20850086212158 " class="clickable" style="cursor:pointer;stroke:rgba(0, 0, 0, 0);stroke-opacity:0;stroke-width:7px;"/></g></g><g id="sprotty_ArchitectureBlockImpl$Ir/BPortImpl$immed_addr_to_ArchitectureBlockImpl$Ir/AlwaysBlockImpl$null16/GPortImpl$immed_addr" class="sprotty-edge thick edge" style="fill:none;stroke:rgb(112, 112, 112);stroke-linejoin:round;stroke-width:3px;"><g><path d="M 307.5019836425781 62.75969982147217 L 193.01039123535156 62.75969982147217 C 192.01039123535156 62.75969982147217 191.01039123535156 63.75969982147217 191.01039123535156 64.75969982147217 L 191.01039123535156 80.20850086212158 C 191.01039123535156 81.20850086212158 190.01039123535156 82.20850086212158 189.01039123535156 82.20850086212158 L 171.01039123535156 82.20850086212158 "/><path d="M 307.5019836425781 62.75969982147217 L 193.01039123535156 62.75969982147217 C 192.01039123535156 62.75969982147217 191.01039123535156 63.75969982147217 191.01039123535156 64.75969982147217 L 191.01039123535156 80.20850086212158 C 191.01039123535156 81.20850086212158 190.01039123535156 82.20850086212158 189.01039123535156 82.20850086212158 L 171.01039123535156 82.20850086212158 " class="clickable" style="cursor:pointer;stroke:rgba(0, 0, 0, 0);stroke-opacity:0;stroke-width:7px;"/></g></g><g id="sprotty_ArchitectureBlockImpl$Ir/BPortImpl$clk_to_ArchitectureBlockImpl$Ir/AlwaysBlockImpl$null15/GPortImpl$clk" class="sprotty-edge edge" style="fill:none;stroke:rgb(112, 112, 112);stroke-linejoin:round;"><g><path d="M 0 262.9813013076782 L 106.21900177001953 262.9813013076782 C 107.21900177001953 262.9813013076782 108.21900177001953 261.9813013076782 108.21900177001953 260.9813013076782 L 108.21900177001953 185.83840084075928 C 108.21900177001953 184.83840084075928 109.21900177001953 183.83840084075928 110.21900177001953 183.83840084075928 L 138.21900177001953 183.83840084075928 "/><path d="M 0 262.9813013076782 L 106.21900177001953 262.9813013076782 C 107.21900177001953 262.9813013076782 108.21900177001953 261.9813013076782 108.21900177001953 260.9813013076782 L 108.21900177001953 185.83840084075928 C 108.21900177001953 184.83840084075928 109.21900177001953 183.83840084075928 110.21900177001953 183.83840084075928 L 138.21900177001953 183.83840084075928 " class="clickable" style="cursor:pointer;stroke:rgba(0, 0, 0, 0);stroke-opacity:0;stroke-width:5px;"/></g><circle r="2" id="sprotty_ArchitectureBlockImpl$Ir/BPortImpl$clk_to_ArchitectureBlockImpl$Ir/AlwaysBlockImpl$null15/GPortImpl$clk/junction0" transform="translate(108.21900177001953, 183.83840084075928)" class="sprotty-junction junction" style="fill:rgb(112, 112, 112);stroke:none;"/></g><g id="sprotty_ArchitectureBlockImpl$Ir/BPortImpl$rst_to_ArchitectureBlockImpl$Ir/AlwaysBlockImpl$null15/GPortImpl$rst" class="sprotty-edge edge" style="fill:none;stroke:rgb(112, 112, 112);stroke-linejoin:round;"><g><path d="M 0 163.83840084075928 L 138.21900177001953 163.83840084075928 "/><path d="M 0 163.83840084075928 L 138.21900177001953 163.83840084075928 " class="clickable" style="cursor:pointer;stroke:rgba(0, 0, 0, 0);stroke-opacity:0;stroke-width:5px;"/></g></g><g id="sprotty_ArchitectureBlockImpl$Ir/BPortImpl$imem_to_ir_to_ArchitectureBlockImpl$Ir/AlwaysBlockImpl$null15/GPortImpl$imem_to_ir" class="sprotty-edge thick edge" style="fill:none;stroke:rgb(112, 112, 112);stroke-linejoin:round;stroke-width:3px;"><g><path d="M 0 233.83840084075928 L 116.21900177001953 233.83840084075928 C 117.21900177001953 233.83840084075928 118.21900177001953 232.83840084075928 118.21900177001953 231.83840084075928 L 118.21900177001953 175.83840084075928 C 118.21900177001953 174.83840084075928 119.21900177001953 173.83840084075928 120.21900177001953 173.83840084075928 L 138.21900177001953 173.83840084075928 "/><path d="M 0 233.83840084075928 L 116.21900177001953 233.83840084075928 C 117.21900177001953 233.83840084075928 118.21900177001953 232.83840084075928 118.21900177001953 231.83840084075928 L 118.21900177001953 175.83840084075928 C 118.21900177001953 174.83840084075928 119.21900177001953 173.83840084075928 120.21900177001953 173.83840084075928 L 138.21900177001953 173.83840084075928 " class="clickable" style="cursor:pointer;stroke:rgba(0, 0, 0, 0);stroke-opacity:0;stroke-width:7px;"/></g><circle r="3" id="sprotty_ArchitectureBlockImpl$Ir/BPortImpl$imem_to_ir_to_ArchitectureBlockImpl$Ir/AlwaysBlockImpl$null15/GPortImpl$imem_to_ir/junction0" transform="translate(118.21900177001953, 173.83840084075928)" class="sprotty-junction thick" style="fill:rgb(112, 112, 112);stroke:none;"/></g><g id="sprotty_ArchitectureBlockImpl$Ir/BPortImpl$Ext_sz_c_to_ArchitectureBlockImpl$Ir/AlwaysBlockImpl$null15/GPortImpl$Ext_sz_c" class="sprotty-edge edge" style="fill:none;stroke:rgb(112, 112, 112);stroke-linejoin:round;"><g><path d="M 307.5019836425781 173.83840084075928 L 171.01039123535156 173.83840084075928 "/><path d="M 307.5019836425781 173.83840084075928 L 171.01039123535156 173.83840084075928 " class="clickable" style="cursor:pointer;stroke:rgba(0, 0, 0, 0);stroke-opacity:0;stroke-width:5px;"/></g></g><g id="sprotty_ArchitectureBlockImpl$Ir/BPortImpl$clk_to_ArchitectureBlockImpl$Ir/AlwaysBlockImpl$null14/GPortImpl$clk" class="sprotty-edge edge" style="fill:none;stroke:rgb(112, 112, 112);stroke-linejoin:round;"><g><path d="M 0 262.9813013076782 L 106.21900177001953 262.9813013076782 C 107.21900177001953 262.9813013076782 108.21900177001953 261.9813013076782 108.21900177001953 260.9813013076782 L 108.21900177001953 245.83840084075928 C 108.21900177001953 244.83840084075928 109.21900177001953 243.83840084075928 110.21900177001953 243.83840084075928 L 138.21900177001953 243.83840084075928 "/><path d="M 0 262.9813013076782 L 106.21900177001953 262.9813013076782 C 107.21900177001953 262.9813013076782 108.21900177001953 261.9813013076782 108.21900177001953 260.9813013076782 L 108.21900177001953 245.83840084075928 C 108.21900177001953 244.83840084075928 109.21900177001953 243.83840084075928 110.21900177001953 243.83840084075928 L 138.21900177001953 243.83840084075928 " class="clickable" style="cursor:pointer;stroke:rgba(0, 0, 0, 0);stroke-opacity:0;stroke-width:5px;"/></g><circle r="2" id="sprotty_ArchitectureBlockImpl$Ir/BPortImpl$clk_to_ArchitectureBlockImpl$Ir/AlwaysBlockImpl$null14/GPortImpl$clk/junction0" transform="translate(108.21900177001953, 243.83840084075928)" class="sprotty-junction junction" style="fill:rgb(112, 112, 112);stroke:none;"/></g><g id="sprotty_ArchitectureBlockImpl$Ir/BPortImpl$rst_to_ArchitectureBlockImpl$Ir/AlwaysBlockImpl$null14/GPortImpl$rst" class="sprotty-edge edge" style="fill:none;stroke:rgb(112, 112, 112);stroke-linejoin:round;"><g><path d="M 0 163.83840084075928 L 126.21900177001953 163.83840084075928 C 127.21900177001953 163.83840084075928 128.21900177001953 164.83840084075928 128.21900177001953 165.83840084075928 L 128.21900177001953 221.83840084075928 C 128.21900177001953 222.83840084075928 129.21900177001953 223.83840084075928 130.21900177001953 223.83840084075928 L 138.21900177001953 223.83840084075928 "/><path d="M 0 163.83840084075928 L 126.21900177001953 163.83840084075928 C 127.21900177001953 163.83840084075928 128.21900177001953 164.83840084075928 128.21900177001953 165.83840084075928 L 128.21900177001953 221.83840084075928 C 128.21900177001953 222.83840084075928 129.21900177001953 223.83840084075928 130.21900177001953 223.83840084075928 L 138.21900177001953 223.83840084075928 " class="clickable" style="cursor:pointer;stroke:rgba(0, 0, 0, 0);stroke-opacity:0;stroke-width:5px;"/></g><circle r="2" id="sprotty_ArchitectureBlockImpl$Ir/BPortImpl$rst_to_ArchitectureBlockImpl$Ir/AlwaysBlockImpl$null14/GPortImpl$rst/junction0" transform="translate(128.21900177001953, 223.83840084075928)" class="sprotty-junction junction" style="fill:rgb(112, 112, 112);stroke:none;"/></g><g id="sprotty_ArchitectureBlockImpl$Ir/BPortImpl$imem_to_ir_to_ArchitectureBlockImpl$Ir/AlwaysBlockImpl$null14/GPortImpl$imem_to_ir" class="sprotty-edge thick edge" style="fill:none;stroke:rgb(112, 112, 112);stroke-linejoin:round;stroke-width:3px;"><g><path d="M 0 233.83840084075928 L 138.21900177001953 233.83840084075928 "/><path d="M 0 233.83840084075928 L 138.21900177001953 233.83840084075928 " class="clickable" style="cursor:pointer;stroke:rgba(0, 0, 0, 0);stroke-opacity:0;stroke-width:7px;"/></g></g><g id="sprotty_ArchitectureBlockImpl$Ir/BPortImpl$From_i_op_to_ArchitectureBlockImpl$Ir/AlwaysBlockImpl$null14/GPortImpl$From_i_op" class="sprotty-edge thick edge" style="fill:none;stroke:rgb(112, 112, 112);stroke-linejoin:round;stroke-width:3px;"><g><path d="M 307.5019836425781 256.3146346410116 L 183.01039123535156 256.3146346410116 C 182.01039123535156 256.3146346410116 181.01039123535156 255.3146346410116 181.01039123535156 254.3146346410116 L 181.01039123535156 242.50506750742593 C 181.01039123535156 241.50506750742593 180.01039123535156 240.50506750742593 179.01039123535156 240.50506750742593 L 171.01039123535156 240.50506750742593 "/><path d="M 307.5019836425781 256.3146346410116 L 183.01039123535156 256.3146346410116 C 182.01039123535156 256.3146346410116 181.01039123535156 255.3146346410116 181.01039123535156 254.3146346410116 L 181.01039123535156 242.50506750742593 C 181.01039123535156 241.50506750742593 180.01039123535156 240.50506750742593 179.01039123535156 240.50506750742593 L 171.01039123535156 240.50506750742593 " class="clickable" style="cursor:pointer;stroke:rgba(0, 0, 0, 0);stroke-opacity:0;stroke-width:7px;"/></g></g><g id="sprotty_ArchitectureBlockImpl$Ir/BPortImpl$From_i_mux_to_ArchitectureBlockImpl$Ir/AlwaysBlockImpl$null14/GPortImpl$From_i_mux" class="sprotty-edge thick edge" style="fill:none;stroke:rgb(112, 112, 112);stroke-linejoin:round;stroke-width:3px;"><g><path d="M 307.5019836425781 227.17173417409262 L 171.01039123535156 227.17173417409262 "/><path d="M 307.5019836425781 227.17173417409262 L 171.01039123535156 227.17173417409262 " class="clickable" style="cursor:pointer;stroke:rgba(0, 0, 0, 0);stroke-opacity:0;stroke-width:7px;"/></g></g><g id="sprotty_ArchitectureBlockImpl$Ir/BPortImpl$clk_to_ArchitectureBlockImpl$Ir/AlwaysBlockImpl$null13/GPortImpl$clk" class="sprotty-edge edge" style="fill:none;stroke:rgb(112, 112, 112);stroke-linejoin:round;"><g><path d="M 0 262.9813013076782 L 106.21900177001953 262.9813013076782 C 107.21900177001953 262.9813013076782 108.21900177001953 263.9813013076782 108.21900177001953 264.9813013076782 L 108.21900177001953 301.8384008407593 C 108.21900177001953 302.8384008407593 109.21900177001953 303.8384008407593 110.21900177001953 303.8384008407593 L 138.21900177001953 303.8384008407593 "/><path d="M 0 262.9813013076782 L 106.21900177001953 262.9813013076782 C 107.21900177001953 262.9813013076782 108.21900177001953 263.9813013076782 108.21900177001953 264.9813013076782 L 108.21900177001953 301.8384008407593 C 108.21900177001953 302.8384008407593 109.21900177001953 303.8384008407593 110.21900177001953 303.8384008407593 L 138.21900177001953 303.8384008407593 " class="clickable" style="cursor:pointer;stroke:rgba(0, 0, 0, 0);stroke-opacity:0;stroke-width:5px;"/></g></g><g id="sprotty_ArchitectureBlockImpl$Ir/BPortImpl$rst_to_ArchitectureBlockImpl$Ir/AlwaysBlockImpl$null13/GPortImpl$rst" class="sprotty-edge edge" style="fill:none;stroke:rgb(112, 112, 112);stroke-linejoin:round;"><g><path d="M 0 163.83840084075928 L 126.21900177001953 163.83840084075928 C 127.21900177001953 163.83840084075928 128.21900177001953 164.83840084075928 128.21900177001953 165.83840084075928 L 128.21900177001953 281.8384008407593 C 128.21900177001953 282.8384008407593 129.21900177001953 283.8384008407593 130.21900177001953 283.8384008407593 L 138.21900177001953 283.8384008407593 "/><path d="M 0 163.83840084075928 L 126.21900177001953 163.83840084075928 C 127.21900177001953 163.83840084075928 128.21900177001953 164.83840084075928 128.21900177001953 165.83840084075928 L 128.21900177001953 281.8384008407593 C 128.21900177001953 282.8384008407593 129.21900177001953 283.8384008407593 130.21900177001953 283.8384008407593 L 138.21900177001953 283.8384008407593 " class="clickable" style="cursor:pointer;stroke:rgba(0, 0, 0, 0);stroke-opacity:0;stroke-width:5px;"/></g></g><g id="sprotty_ArchitectureBlockImpl$Ir/BPortImpl$imem_to_ir_to_ArchitectureBlockImpl$Ir/AlwaysBlockImpl$null13/GPortImpl$imem_to_ir" class="sprotty-edge thick edge" style="fill:none;stroke:rgb(112, 112, 112);stroke-linejoin:round;stroke-width:3px;"><g><path d="M 0 233.83840084075928 L 116.21900177001953 233.83840084075928 C 117.21900177001953 233.83840084075928 118.21900177001953 234.83840084075928 118.21900177001953 235.83840084075928 L 118.21900177001953 291.8384008407593 C 118.21900177001953 292.8384008407593 119.21900177001953 293.8384008407593 120.21900177001953 293.8384008407593 L 138.21900177001953 293.8384008407593 "/><path d="M 0 233.83840084075928 L 116.21900177001953 233.83840084075928 C 117.21900177001953 233.83840084075928 118.21900177001953 234.83840084075928 118.21900177001953 235.83840084075928 L 118.21900177001953 291.8384008407593 C 118.21900177001953 292.8384008407593 119.21900177001953 293.8384008407593 120.21900177001953 293.8384008407593 L 138.21900177001953 293.8384008407593 " class="clickable" style="cursor:pointer;stroke:rgba(0, 0, 0, 0);stroke-opacity:0;stroke-width:7px;"/></g></g><g id="sprotty_ArchitectureBlockImpl$Ir/BPortImpl$lui_to_ArchitectureBlockImpl$Ir/AlwaysBlockImpl$null13/GPortImpl$lui" class="sprotty-edge edge" style="fill:none;stroke:rgb(112, 112, 112);stroke-linejoin:round;"><g><path d="M 307.5019836425781 293.8384008407593 L 171.01039123535156 293.8384008407593 "/><path d="M 307.5019836425781 293.8384008407593 L 171.01039123535156 293.8384008407593 " class="clickable" style="cursor:pointer;stroke:rgba(0, 0, 0, 0);stroke-opacity:0;stroke-width:5px;"/></g></g><g id="sprotty_ArchitectureBlockImpl$Ir/AlwaysBlockImpl$null13" transform="translate(138.21900177001953, 273.8384008407593)" class="statement"><rect x="0" y="0" rx="10" ry="5" width="32.79138946533203" height="40" class="sprotty-node" style="fill:rgb(245, 245, 245);stroke:rgb(112, 112, 112);"/><g id="sprotty_ArchitectureBlockImpl$Ir/AlwaysBlockImpl$null13/labeltype" transform="translate(5, 16.588295221328735) translate(0, -1.5007500648498535)" class="sprotty-label statementtype" style="cursor:default;font-family:Arial, Helvetica, sans-serif;fill:rgb(48, 48, 48);text-anchor:middle;"><path d="M1.45 0.09C1.87 0.09 2.25-0.12 2.57-0.40L2.59-0.40L2.67 0L3.47 0L3.47-2.18C3.47-3.26 2.98-3.83 2.03-3.83C1.45-3.83 0.91-3.61 0.47-3.33L0.83-2.69C1.17-2.89 1.51-3.04 1.85-3.04C2.31-3.04 2.47-2.76 2.49-2.39C0.99-2.23 0.34-1.81 0.34-1.01C0.34-0.38 0.78 0.09 1.45 0.09ZM1.77-0.67C1.48-0.67 1.27-0.80 1.27-1.09C1.27-1.43 1.58-1.67 2.49-1.79L2.49-1.04C2.25-0.81 2.05-0.67 1.77-0.67ZM5.39 0.09C5.62 0.09 5.78 0.05 5.90 0.01L5.78-0.72C5.71-0.71 5.68-0.71 5.64-0.71C5.55-0.71 5.44-0.78 5.44-1.00L5.44-5.32L4.47-5.32L4.47-1.05C4.47-0.35 4.71 0.09 5.39 0.09ZM7.19 0L8.31 0L8.69-1.63C8.77-1.97 8.82-2.32 8.90-2.71L8.93-2.71C9.00-2.32 9.06-1.98 9.14-1.63L9.54 0L10.69 0L11.61-3.74L10.71-3.74L10.30-1.89C10.23-1.53 10.18-1.17 10.11-0.80L10.08-0.80C10.00-1.17 9.93-1.53 9.84-1.89L9.38-3.74L8.50-3.74L8.06-1.89C7.96-1.53 7.90-1.17 7.82-0.80L7.80-0.80C7.73-1.17 7.68-1.53 7.61-1.89L7.20-3.74L6.22-3.74ZM13.17 0.09C13.59 0.09 13.97-0.12 14.29-0.40L14.31-0.40L14.39 0L15.19 0L15.19-2.18C15.19-3.26 14.70-3.83 13.75-3.83C13.17-3.83 12.63-3.61 12.19-3.33L12.55-2.69C12.89-2.89 13.23-3.04 13.57-3.04C14.03-3.04 14.19-2.76 14.21-2.39C12.71-2.23 12.06-1.81 12.06-1.01C12.06-0.38 12.50 0.09 13.17 0.09ZM13.49-0.67C13.20-0.67 12.99-0.80 12.99-1.09C12.99-1.43 13.30-1.67 14.21-1.79L14.21-1.04C13.97-0.81 13.77-0.67 13.49-0.67ZM16.51 1.50C17.35 1.50 17.75 0.99 18.08 0.11L19.40-3.74L18.46-3.74L17.95-2.00C17.86-1.65 17.77-1.29 17.68-0.95L17.65-0.95C17.54-1.31 17.45-1.67 17.34-2.00L16.74-3.74L15.75-3.74L17.21-0.07L17.14 0.15C17.04 0.48 16.82 0.72 16.44 0.72C16.35 0.72 16.25 0.69 16.18 0.67L16.00 1.43C16.15 1.47 16.29 1.50 16.51 1.50ZM21.08 0.09C22.06 0.09 22.57-0.43 22.57-1.09C22.57-1.78 22.02-2.03 21.53-2.21C21.14-2.36 20.77-2.46 20.77-2.73C20.77-2.95 20.93-3.09 21.26-3.09C21.54-3.09 21.80-2.96 22.07-2.77L22.51-3.37C22.20-3.60 21.78-3.83 21.24-3.83C20.40-3.83 19.85-3.36 19.85-2.68C19.85-2.06 20.40-1.77 20.87-1.59C21.26-1.44 21.65-1.31 21.65-1.03C21.65-0.80 21.48-0.64 21.11-0.64C20.76-0.64 20.44-0.79 20.11-1.05L19.66-0.43C20.03-0.13 20.58 0.09 21.08 0.09Z" transform="translate(0, 6.82341)"/><rect x="0" y="1.50075" width="22.791389999999996" height="6.82341" class="clickable" style="cursor:pointer;fill:rgba(0, 0, 0, 0);fill-opacity:0;stroke-width:0px;"/></g><g id="sprotty_ArchitectureBlockImpl$Ir/AlwaysBlockImpl$null13/GPortImpl$imem_to_ir" transform="translate(0, 20)" class="sprotty-hidden hidden" style="display:block;"/><g id="sprotty_ArchitectureBlockImpl$Ir/AlwaysBlockImpl$null13/GPortImpl$clk" transform="translate(0, 30)" class="sprotty-hidden hidden" style="display:block;"/><g id="sprotty_ArchitectureBlockImpl$Ir/AlwaysBlockImpl$null13/GPortImpl$rst" transform="translate(0, 10)" class="sprotty-hidden hidden" style="display:block;"/><g id="sprotty_ArchitectureBlockImpl$Ir/AlwaysBlockImpl$null13/GPortImpl$lui" transform="translate(32.79138946533203, 20)" class="sprotty-hidden hidden" style="display:block;"/></g><g id="sprotty_ArchitectureBlockImpl$Ir/AlwaysBlockImpl$null14" transform="translate(138.21900177001953, 213.83840084075928)" class="statement"><rect x="0" y="0" rx="10" ry="5" width="32.79138946533203" height="40" class="sprotty-node" style="fill:rgb(245, 245, 245);stroke:rgb(112, 112, 112);"/><g id="sprotty_ArchitectureBlockImpl$Ir/AlwaysBlockImpl$null14/labeltype" transform="translate(5, 16.588295221328735) translate(0, -1.5007500648498535)" class="sprotty-label statementtype" style="cursor:default;font-family:Arial, Helvetica, sans-serif;fill:rgb(48, 48, 48);text-anchor:middle;"><path d="M1.45 0.09C1.87 0.09 2.25-0.12 2.57-0.40L2.59-0.40L2.67 0L3.47 0L3.47-2.18C3.47-3.26 2.98-3.83 2.03-3.83C1.45-3.83 0.91-3.61 0.47-3.33L0.83-2.69C1.17-2.89 1.51-3.04 1.85-3.04C2.31-3.04 2.47-2.76 2.49-2.39C0.99-2.23 0.34-1.81 0.34-1.01C0.34-0.38 0.78 0.09 1.45 0.09ZM1.77-0.67C1.48-0.67 1.27-0.80 1.27-1.09C1.27-1.43 1.58-1.67 2.49-1.79L2.49-1.04C2.25-0.81 2.05-0.67 1.77-0.67ZM5.39 0.09C5.62 0.09 5.78 0.05 5.90 0.01L5.78-0.72C5.71-0.71 5.68-0.71 5.64-0.71C5.55-0.71 5.44-0.78 5.44-1.00L5.44-5.32L4.47-5.32L4.47-1.05C4.47-0.35 4.71 0.09 5.39 0.09ZM7.19 0L8.31 0L8.69-1.63C8.77-1.97 8.82-2.32 8.90-2.71L8.93-2.71C9.00-2.32 9.06-1.98 9.14-1.63L9.54 0L10.69 0L11.61-3.74L10.71-3.74L10.30-1.89C10.23-1.53 10.18-1.17 10.11-0.80L10.08-0.80C10.00-1.17 9.93-1.53 9.84-1.89L9.38-3.74L8.50-3.74L8.06-1.89C7.96-1.53 7.90-1.17 7.82-0.80L7.80-0.80C7.73-1.17 7.68-1.53 7.61-1.89L7.20-3.74L6.22-3.74ZM13.17 0.09C13.59 0.09 13.97-0.12 14.29-0.40L14.31-0.40L14.39 0L15.19 0L15.19-2.18C15.19-3.26 14.70-3.83 13.75-3.83C13.17-3.83 12.63-3.61 12.19-3.33L12.55-2.69C12.89-2.89 13.23-3.04 13.57-3.04C14.03-3.04 14.19-2.76 14.21-2.39C12.71-2.23 12.06-1.81 12.06-1.01C12.06-0.38 12.50 0.09 13.17 0.09ZM13.49-0.67C13.20-0.67 12.99-0.80 12.99-1.09C12.99-1.43 13.30-1.67 14.21-1.79L14.21-1.04C13.97-0.81 13.77-0.67 13.49-0.67ZM16.51 1.50C17.35 1.50 17.75 0.99 18.08 0.11L19.40-3.74L18.46-3.74L17.95-2.00C17.86-1.65 17.77-1.29 17.68-0.95L17.65-0.95C17.54-1.31 17.45-1.67 17.34-2.00L16.74-3.74L15.75-3.74L17.21-0.07L17.14 0.15C17.04 0.48 16.82 0.72 16.44 0.72C16.35 0.72 16.25 0.69 16.18 0.67L16.00 1.43C16.15 1.47 16.29 1.50 16.51 1.50ZM21.08 0.09C22.06 0.09 22.57-0.43 22.57-1.09C22.57-1.78 22.02-2.03 21.53-2.21C21.14-2.36 20.77-2.46 20.77-2.73C20.77-2.95 20.93-3.09 21.26-3.09C21.54-3.09 21.80-2.96 22.07-2.77L22.51-3.37C22.20-3.60 21.78-3.83 21.24-3.83C20.40-3.83 19.85-3.36 19.85-2.68C19.85-2.06 20.40-1.77 20.87-1.59C21.26-1.44 21.65-1.31 21.65-1.03C21.65-0.80 21.48-0.64 21.11-0.64C20.76-0.64 20.44-0.79 20.11-1.05L19.66-0.43C20.03-0.13 20.58 0.09 21.08 0.09Z" transform="translate(0, 6.82341)"/><rect x="0" y="1.50075" width="22.791389999999996" height="6.82341" class="clickable" style="cursor:pointer;fill:rgba(0, 0, 0, 0);fill-opacity:0;stroke-width:0px;"/></g><g id="sprotty_ArchitectureBlockImpl$Ir/AlwaysBlockImpl$null14/GPortImpl$imem_to_ir" transform="translate(0, 20)" class="sprotty-hidden hidden" style="display:block;"/><g id="sprotty_ArchitectureBlockImpl$Ir/AlwaysBlockImpl$null14/GPortImpl$clk" transform="translate(0, 30)" class="sprotty-hidden hidden" style="display:block;"/><g id="sprotty_ArchitectureBlockImpl$Ir/AlwaysBlockImpl$null14/GPortImpl$rst" transform="translate(0, 10)" class="sprotty-hidden hidden" style="display:block;"/><g id="sprotty_ArchitectureBlockImpl$Ir/AlwaysBlockImpl$null14/GPortImpl$From_i_op" transform="translate(32.79138946533203, 26.666666666666668)" class="sprotty-hidden hidden" style="display:block;"/><g id="sprotty_ArchitectureBlockImpl$Ir/AlwaysBlockImpl$null14/GPortImpl$From_i_mux" transform="translate(32.79138946533203, 13.333333333333334)" class="sprotty-hidden hidden" style="display:block;"/></g><g id="sprotty_ArchitectureBlockImpl$Ir/AlwaysBlockImpl$null15" transform="translate(138.21900177001953, 153.83840084075928)" class="statement"><rect x="0" y="0" rx="10" ry="5" width="32.79138946533203" height="40" class="sprotty-node" style="fill:rgb(245, 245, 245);stroke:rgb(112, 112, 112);"/><g id="sprotty_ArchitectureBlockImpl$Ir/AlwaysBlockImpl$null15/labeltype" transform="translate(5, 16.588295221328735) translate(0, -1.5007500648498535)" class="sprotty-label statementtype" style="cursor:default;font-family:Arial, Helvetica, sans-serif;fill:rgb(48, 48, 48);text-anchor:middle;"><path d="M1.45 0.09C1.87 0.09 2.25-0.12 2.57-0.40L2.59-0.40L2.67 0L3.47 0L3.47-2.18C3.47-3.26 2.98-3.83 2.03-3.83C1.45-3.83 0.91-3.61 0.47-3.33L0.83-2.69C1.17-2.89 1.51-3.04 1.85-3.04C2.31-3.04 2.47-2.76 2.49-2.39C0.99-2.23 0.34-1.81 0.34-1.01C0.34-0.38 0.78 0.09 1.45 0.09ZM1.77-0.67C1.48-0.67 1.27-0.80 1.27-1.09C1.27-1.43 1.58-1.67 2.49-1.79L2.49-1.04C2.25-0.81 2.05-0.67 1.77-0.67ZM5.39 0.09C5.62 0.09 5.78 0.05 5.90 0.01L5.78-0.72C5.71-0.71 5.68-0.71 5.64-0.71C5.55-0.71 5.44-0.78 5.44-1.00L5.44-5.32L4.47-5.32L4.47-1.05C4.47-0.35 4.71 0.09 5.39 0.09ZM7.19 0L8.31 0L8.69-1.63C8.77-1.97 8.82-2.32 8.90-2.71L8.93-2.71C9.00-2.32 9.06-1.98 9.14-1.63L9.54 0L10.69 0L11.61-3.74L10.71-3.74L10.30-1.89C10.23-1.53 10.18-1.17 10.11-0.80L10.08-0.80C10.00-1.17 9.93-1.53 9.84-1.89L9.38-3.74L8.50-3.74L8.06-1.89C7.96-1.53 7.90-1.17 7.82-0.80L7.80-0.80C7.73-1.17 7.68-1.53 7.61-1.89L7.20-3.74L6.22-3.74ZM13.17 0.09C13.59 0.09 13.97-0.12 14.29-0.40L14.31-0.40L14.39 0L15.19 0L15.19-2.18C15.19-3.26 14.70-3.83 13.75-3.83C13.17-3.83 12.63-3.61 12.19-3.33L12.55-2.69C12.89-2.89 13.23-3.04 13.57-3.04C14.03-3.04 14.19-2.76 14.21-2.39C12.71-2.23 12.06-1.81 12.06-1.01C12.06-0.38 12.50 0.09 13.17 0.09ZM13.49-0.67C13.20-0.67 12.99-0.80 12.99-1.09C12.99-1.43 13.30-1.67 14.21-1.79L14.21-1.04C13.97-0.81 13.77-0.67 13.49-0.67ZM16.51 1.50C17.35 1.50 17.75 0.99 18.08 0.11L19.40-3.74L18.46-3.74L17.95-2.00C17.86-1.65 17.77-1.29 17.68-0.95L17.65-0.95C17.54-1.31 17.45-1.67 17.34-2.00L16.74-3.74L15.75-3.74L17.21-0.07L17.14 0.15C17.04 0.48 16.82 0.72 16.44 0.72C16.35 0.72 16.25 0.69 16.18 0.67L16.00 1.43C16.15 1.47 16.29 1.50 16.51 1.50ZM21.08 0.09C22.06 0.09 22.57-0.43 22.57-1.09C22.57-1.78 22.02-2.03 21.53-2.21C21.14-2.36 20.77-2.46 20.77-2.73C20.77-2.95 20.93-3.09 21.26-3.09C21.54-3.09 21.80-2.96 22.07-2.77L22.51-3.37C22.20-3.60 21.78-3.83 21.24-3.83C20.40-3.83 19.85-3.36 19.85-2.68C19.85-2.06 20.40-1.77 20.87-1.59C21.26-1.44 21.65-1.31 21.65-1.03C21.65-0.80 21.48-0.64 21.11-0.64C20.76-0.64 20.44-0.79 20.11-1.05L19.66-0.43C20.03-0.13 20.58 0.09 21.08 0.09Z" transform="translate(0, 6.82341)"/><rect x="0" y="1.50075" width="22.791389999999996" height="6.82341" class="clickable" style="cursor:pointer;fill:rgba(0, 0, 0, 0);fill-opacity:0;stroke-width:0px;"/></g><g id="sprotty_ArchitectureBlockImpl$Ir/AlwaysBlockImpl$null15/GPortImpl$clk" transform="translate(0, 30)" class="sprotty-hidden hidden" style="display:block;"/><g id="sprotty_ArchitectureBlockImpl$Ir/AlwaysBlockImpl$null15/GPortImpl$rst" transform="translate(0, 10)" class="sprotty-hidden hidden" style="display:block;"/><g id="sprotty_ArchitectureBlockImpl$Ir/AlwaysBlockImpl$null15/GPortImpl$imem_to_ir" transform="translate(0, 20)" class="sprotty-hidden hidden" style="display:block;"/><g id="sprotty_ArchitectureBlockImpl$Ir/AlwaysBlockImpl$null15/GPortImpl$Ext_sz_c" transform="translate(32.79138946533203, 20)" class="sprotty-hidden hidden" style="display:block;"/></g><g id="sprotty_ArchitectureBlockImpl$Ir/AlwaysBlockImpl$null16" transform="translate(138.21900177001953, 62.20850086212158)" class="statement"><rect x="0" y="0" rx="10" ry="5" width="32.79138946533203" height="60" class="sprotty-node" style="fill:rgb(245, 245, 245);stroke:rgb(112, 112, 112);"/><g id="sprotty_ArchitectureBlockImpl$Ir/AlwaysBlockImpl$null16/labeltype" transform="translate(5, 26.588295221328735) translate(0, -1.5007500648498535)" class="sprotty-label statementtype" style="cursor:default;font-family:Arial, Helvetica, sans-serif;fill:rgb(48, 48, 48);text-anchor:middle;"><path d="M1.45 0.09C1.87 0.09 2.25-0.12 2.57-0.40L2.59-0.40L2.67 0L3.47 0L3.47-2.18C3.47-3.26 2.98-3.83 2.03-3.83C1.45-3.83 0.91-3.61 0.47-3.33L0.83-2.69C1.17-2.89 1.51-3.04 1.85-3.04C2.31-3.04 2.47-2.76 2.49-2.39C0.99-2.23 0.34-1.81 0.34-1.01C0.34-0.38 0.78 0.09 1.45 0.09ZM1.77-0.67C1.48-0.67 1.27-0.80 1.27-1.09C1.27-1.43 1.58-1.67 2.49-1.79L2.49-1.04C2.25-0.81 2.05-0.67 1.77-0.67ZM5.39 0.09C5.62 0.09 5.78 0.05 5.90 0.01L5.78-0.72C5.71-0.71 5.68-0.71 5.64-0.71C5.55-0.71 5.44-0.78 5.44-1.00L5.44-5.32L4.47-5.32L4.47-1.05C4.47-0.35 4.71 0.09 5.39 0.09ZM7.19 0L8.31 0L8.69-1.63C8.77-1.97 8.82-2.32 8.90-2.71L8.93-2.71C9.00-2.32 9.06-1.98 9.14-1.63L9.54 0L10.69 0L11.61-3.74L10.71-3.74L10.30-1.89C10.23-1.53 10.18-1.17 10.11-0.80L10.08-0.80C10.00-1.17 9.93-1.53 9.84-1.89L9.38-3.74L8.50-3.74L8.06-1.89C7.96-1.53 7.90-1.17 7.82-0.80L7.80-0.80C7.73-1.17 7.68-1.53 7.61-1.89L7.20-3.74L6.22-3.74ZM13.17 0.09C13.59 0.09 13.97-0.12 14.29-0.40L14.31-0.40L14.39 0L15.19 0L15.19-2.18C15.19-3.26 14.70-3.83 13.75-3.83C13.17-3.83 12.63-3.61 12.19-3.33L12.55-2.69C12.89-2.89 13.23-3.04 13.57-3.04C14.03-3.04 14.19-2.76 14.21-2.39C12.71-2.23 12.06-1.81 12.06-1.01C12.06-0.38 12.50 0.09 13.17 0.09ZM13.49-0.67C13.20-0.67 12.99-0.80 12.99-1.09C12.99-1.43 13.30-1.67 14.21-1.79L14.21-1.04C13.97-0.81 13.77-0.67 13.49-0.67ZM16.51 1.50C17.35 1.50 17.75 0.99 18.08 0.11L19.40-3.74L18.46-3.74L17.95-2.00C17.86-1.65 17.77-1.29 17.68-0.95L17.65-0.95C17.54-1.31 17.45-1.67 17.34-2.00L16.74-3.74L15.75-3.74L17.21-0.07L17.14 0.15C17.04 0.48 16.82 0.72 16.44 0.72C16.35 0.72 16.25 0.69 16.18 0.67L16.00 1.43C16.15 1.47 16.29 1.50 16.51 1.50ZM21.08 0.09C22.06 0.09 22.57-0.43 22.57-1.09C22.57-1.78 22.02-2.03 21.53-2.21C21.14-2.36 20.77-2.46 20.77-2.73C20.77-2.95 20.93-3.09 21.26-3.09C21.54-3.09 21.80-2.96 22.07-2.77L22.51-3.37C22.20-3.60 21.78-3.83 21.24-3.83C20.40-3.83 19.85-3.36 19.85-2.68C19.85-2.06 20.40-1.77 20.87-1.59C21.26-1.44 21.65-1.31 21.65-1.03C21.65-0.80 21.48-0.64 21.11-0.64C20.76-0.64 20.44-0.79 20.11-1.05L19.66-0.43C20.03-0.13 20.58 0.09 21.08 0.09Z" transform="translate(0, 6.82341)"/><rect x="0" y="1.50075" width="22.791389999999996" height="6.82341" class="clickable" style="cursor:pointer;fill:rgba(0, 0, 0, 0);fill-opacity:0;stroke-width:0px;"/></g><g id="sprotty_ArchitectureBlockImpl$Ir/AlwaysBlockImpl$null16/GPortImpl$imem_to_ir" transform="translate(0, 36)" class="sprotty-hidden hidden" style="display:block;"/><g id="sprotty_ArchitectureBlockImpl$Ir/AlwaysBlockImpl$null16/GPortImpl$IRWrite" transform="translate(0, 12)" class="sprotty-hidden hidden" style="display:block;"/><g id="sprotty_ArchitectureBlockImpl$Ir/AlwaysBlockImpl$null16/GPortImpl$clk" transform="translate(0, 48)" class="sprotty-hidden hidden" style="display:block;"/><g id="sprotty_ArchitectureBlockImpl$Ir/AlwaysBlockImpl$null16/GPortImpl$rst" transform="translate(0, 24)" class="sprotty-hidden hidden" style="display:block;"/><g id="sprotty_ArchitectureBlockImpl$Ir/AlwaysBlockImpl$null16/GPortImpl$Opcode" transform="translate(32.79138946533203, 40)" class="sprotty-hidden hidden" style="display:block;"/><g id="sprotty_ArchitectureBlockImpl$Ir/AlwaysBlockImpl$null16/GPortImpl$rs" transform="translate(32.79138946533203, 50)" class="sprotty-hidden hidden" style="display:block;"/><g id="sprotty_ArchitectureBlockImpl$Ir/AlwaysBlockImpl$null16/GPortImpl$rt" transform="translate(32.79138946533203, 30)" class="sprotty-hidden hidden" style="display:block;"/><g id="sprotty_ArchitectureBlockImpl$Ir/AlwaysBlockImpl$null16/GPortImpl$rd" transform="translate(32.79138946533203, 10)" class="sprotty-hidden hidden" style="display:block;"/><g id="sprotty_ArchitectureBlockImpl$Ir/AlwaysBlockImpl$null16/GPortImpl$immed_addr" transform="translate(32.79138946533203, 20)" class="sprotty-hidden hidden" style="display:block;"/></g><g id="sprotty_ArchitectureBlockImpl$Ir/BPortImpl$IRWrite" transform="translate(0, 74.20850086212158)" class="triangle"><path d="M 0,0 L 5,2.5 L 0,5 Z" transform="translate(-1.67, -2.5)" class="sprotty-port" style="fill:rgb(48, 48, 48);stroke:rgb(48, 48, 48);"/><g class="port sprotty-label" id="sprotty_ArchitectureBlockImpl$Ir/BPortImpl$IRWrite/label" transform="translate(3, 3) translate(0, -0.1729000061750412)" style="cursor:default;font-family:Arial, Helvetica, sans-serif;fill:rgb(48, 48, 48);text-anchor:middle;"><path d="M1.33 0L2.57 0L2.57-9.75L1.33-9.75ZM6.46-8.75L8.10-8.75C9.63-8.75 10.47-8.30 10.47-7.01C10.47-5.75 9.63-5.13 8.10-5.13L6.46-5.13ZM11.98 0L9.48-4.27C10.81-4.59 11.69-5.49 11.69-7.01C11.69-9.04 10.27-9.75 8.29-9.75L5.23-9.75L5.23 0L6.46 0L6.46-4.14L8.22-4.14L10.59 0ZM14.84 0L16.31 0L17.76-5.88C17.92-6.65 18.09-7.35 18.25-8.10L18.30-8.10C18.46-7.35 18.61-6.65 18.78-5.88L20.26 0L21.73 0L23.75-9.75L22.57-9.75L21.55-4.44C21.36-3.40 21.17-2.35 20.99-1.29L20.92-1.29C20.69-2.35 20.47-3.40 20.23-4.44L18.86-9.75L17.74-9.75L16.40-4.44C16.16-3.39 15.92-2.34 15.69-1.29L15.64-1.29C15.45-2.34 15.26-3.39 15.07-4.44L14.04-9.75L12.77-9.75ZM25.34 0L26.55 0L26.55-4.64C27.03-5.88 27.77-6.30 28.37-6.30C28.66-6.30 28.83-6.28 29.07-6.18L29.30-7.25C29.07-7.37 28.85-7.41 28.53-7.41C27.72-7.41 26.99-6.82 26.48-5.91L26.44-5.91L26.33-7.22L25.34-7.22ZM30.50 0L31.71 0L31.71-7.22L30.50-7.22ZM31.11-8.71C31.59-8.71 31.95-9.04 31.95-9.50C31.95-9.99 31.59-10.28 31.11-10.28C30.63-10.28 30.27-9.99 30.27-9.50C30.27-9.04 30.63-8.71 31.11-8.71ZM36.43 0.17C36.87 0.17 37.35 0.04 37.76-0.09L37.52-1.00C37.28-0.90 36.95-0.81 36.69-0.81C35.86-0.81 35.58-1.32 35.58-2.21L35.58-6.24L37.53-6.24L37.53-7.22L35.58-7.22L35.58-9.24L34.57-9.24L34.42-7.22L33.29-7.16L33.29-6.24L34.37-6.24L34.37-2.23C34.37-0.78 34.89 0.17 36.43 0.17ZM41.88 0.17C42.87 0.17 43.64-0.16 44.28-0.57L43.84-1.37C43.30-1.01 42.73-0.80 42.03-0.80C40.66-0.80 39.71-1.78 39.63-3.33L44.50-3.33C44.53-3.50 44.56-3.75 44.56-4.02C44.56-6.08 43.52-7.41 41.68-7.41C40.01-7.41 38.42-5.95 38.42-3.60C38.42-1.22 39.97 0.17 41.88 0.17ZM39.62-4.19C39.77-5.61 40.67-6.44 41.70-6.44C42.83-6.44 43.49-5.65 43.49-4.19Z" transform="translate(4, 12.453800000000001)"/><rect x="0" y="0.17290000000000003" width="53.113600000000005" height="14.453800000000001" class="clickable" style="cursor:pointer;fill:rgba(0, 0, 0, 0);fill-opacity:0;stroke-width:0px;"/></g></g><g id="sprotty_ArchitectureBlockImpl$Ir/BPortImpl$imem_to_ir" transform="translate(0, 233.83840084075928)" class="triangle"><path d="M 0,0 L 5,2.5 L 0,5 Z" transform="translate(-1.67, -2.5)" class="sprotty-port" style="fill:rgb(48, 48, 48);stroke:rgb(48, 48, 48);"/><g class="port sprotty-label" id="sprotty_ArchitectureBlockImpl$Ir/BPortImpl$imem_to_ir/label" transform="translate(3, 3) translate(0, -1.8619999885559082)" style="cursor:default;font-family:Arial, Helvetica, sans-serif;fill:rgb(48, 48, 48);text-anchor:middle;"><path d="M1.22 0L2.43 0L2.43-7.22L1.22-7.22ZM1.84-8.71C2.31-8.71 2.67-9.04 2.67-9.50C2.67-9.99 2.31-10.28 1.84-10.28C1.36-10.28 1.00-9.99 1.00-9.50C1.00-9.04 1.36-8.71 1.84-8.71ZM4.88 0L6.09 0L6.09-5.24C6.76-5.99 7.37-6.34 7.91-6.34C8.83-6.34 9.26-5.77 9.26-4.42L9.26 0L10.47 0L10.47-5.24C11.15-5.99 11.73-6.34 12.29-6.34C13.21-6.34 13.63-5.77 13.63-4.42L13.63 0L14.84 0L14.84-4.58C14.84-6.42 14.14-7.41 12.65-7.41C11.77-7.41 11.01-6.84 10.27-6.02C9.98-6.88 9.38-7.41 8.27-7.41C7.41-7.41 6.65-6.86 6.02-6.17L5.99-6.17L5.88-7.22L4.88-7.22ZM20.11 0.17C21.09 0.17 21.87-0.16 22.50-0.57L22.06-1.37C21.53-1.01 20.96-0.80 20.26-0.80C18.89-0.80 17.94-1.78 17.86-3.33L22.73-3.33C22.76-3.50 22.78-3.75 22.78-4.02C22.78-6.08 21.75-7.41 19.91-7.41C18.23-7.41 16.65-5.95 16.65-3.60C16.65-1.22 18.19 0.17 20.11 0.17ZM17.85-4.19C17.99-5.61 18.90-6.44 19.92-6.44C21.05-6.44 21.72-5.65 21.72-4.19ZM24.57 0L25.78 0L25.78-5.24C26.44-5.99 27.05-6.34 27.60-6.34C28.52-6.34 28.94-5.77 28.94-4.42L28.94 0L30.15 0L30.15-5.24C30.83-5.99 31.41-6.34 31.97-6.34C32.89-6.34 33.32-5.77 33.32-4.42L33.32 0L34.53 0L34.53-4.58C34.53-6.42 33.82-7.41 32.33-7.41C31.45-7.41 30.70-6.84 29.95-6.02C29.66-6.88 29.06-7.41 27.96-7.41C27.09-7.41 26.33-6.86 25.71-6.17L25.67-6.17L25.56-7.22L24.57-7.22ZM35.83 1.86L42.91 1.86L42.91 1.05L35.83 1.05ZM46.59 0.17C47.03 0.17 47.51 0.04 47.92-0.09L47.68-1.00C47.44-0.90 47.11-0.81 46.86-0.81C46.02-0.81 45.74-1.32 45.74-2.21L45.74-6.24L47.69-6.24L47.69-7.22L45.74-7.22L45.74-9.24L44.73-9.24L44.58-7.22L43.45-7.16L43.45-6.24L44.53-6.24L44.53-2.23C44.53-0.78 45.05 0.17 46.59 0.17ZM51.94 0.17C53.71 0.17 55.29-1.21 55.29-3.60C55.29-6.01 53.71-7.41 51.94-7.41C50.17-7.41 48.58-6.01 48.58-3.60C48.58-1.21 50.17 0.17 51.94 0.17ZM51.94-0.84C50.69-0.84 49.85-1.94 49.85-3.60C49.85-5.27 50.69-6.40 51.94-6.40C53.19-6.40 54.04-5.27 54.04-3.60C54.04-1.94 53.19-0.84 51.94-0.84ZM56.14 1.86L63.21 1.86L63.21 1.05L56.14 1.05ZM64.62 0L65.84 0L65.84-7.22L64.62-7.22ZM65.24-8.71C65.72-8.71 66.07-9.04 66.07-9.50C66.07-9.99 65.72-10.28 65.24-10.28C64.76-10.28 64.40-9.99 64.40-9.50C64.40-9.04 64.76-8.71 65.24-8.71ZM68.28 0L69.49 0L69.49-4.64C69.97-5.88 70.72-6.30 71.31-6.30C71.61-6.30 71.78-6.28 72.02-6.18L72.25-7.25C72.02-7.37 71.79-7.41 71.47-7.41C70.66-7.41 69.93-6.82 69.43-5.91L69.39-5.91L69.28-7.22L68.28-7.22Z" transform="translate(4, 14.142900000000001)"/><rect x="0" y="1.862" width="80.21900000000001" height="16.1429" class="clickable" style="cursor:pointer;fill:rgba(0, 0, 0, 0);fill-opacity:0;stroke-width:0px;"/></g></g><g id="sprotty_ArchitectureBlockImpl$Ir/BPortImpl$rst" transform="translate(0, 163.83840084075928)" class="triangle"><path d="M 0,0 L 5,2.5 L 0,5 Z" transform="translate(-1.67, -2.5)" class="sprotty-port" style="fill:rgb(48, 48, 48);stroke:rgb(48, 48, 48);"/><g class="port sprotty-label" id="sprotty_ArchitectureBlockImpl$Ir/BPortImpl$rst/label" transform="translate(3, 3) translate(0, -0.1729000061750412)" style="cursor:default;font-family:Arial, Helvetica, sans-serif;fill:rgb(48, 48, 48);text-anchor:middle;"><path d="M1.22 0L2.43 0L2.43-4.64C2.91-5.88 3.66-6.30 4.26-6.30C4.55-6.30 4.72-6.28 4.96-6.18L5.19-7.25C4.96-7.37 4.73-7.41 4.42-7.41C3.60-7.41 2.87-6.82 2.37-5.91L2.33-5.91L2.22-7.22L1.22-7.22ZM8.22 0.17C9.92 0.17 10.85-0.80 10.85-1.97C10.85-3.34 9.70-3.76 8.64-4.16C7.83-4.47 7.05-4.72 7.05-5.41C7.05-5.97 7.46-6.45 8.37-6.45C9.02-6.45 9.52-6.18 10.03-5.81L10.61-6.60C10.04-7.04 9.26-7.41 8.37-7.41C6.80-7.41 5.88-6.50 5.88-5.36C5.88-4.14 7.02-3.64 8.03-3.27C8.83-2.97 9.68-2.63 9.68-1.90C9.68-1.28 9.22-0.77 8.26-0.77C7.39-0.77 6.74-1.12 6.12-1.62L5.52-0.82C6.21-0.25 7.20 0.17 8.22 0.17ZM14.54 0.17C14.98 0.17 15.45 0.04 15.87-0.09L15.63-1.00C15.39-0.90 15.06-0.81 14.80-0.81C13.96-0.81 13.69-1.32 13.69-2.21L13.69-6.24L15.64-6.24L15.64-7.22L13.69-7.22L13.69-9.24L12.67-9.24L12.53-7.22L11.40-7.16L11.40-6.24L12.48-6.24L12.48-2.23C12.48-0.78 12.99 0.17 14.54 0.17Z" transform="translate(4, 11.416400000000001)"/><rect x="0" y="0.17290000000000003" width="24.0531" height="13.416400000000001" class="clickable" style="cursor:pointer;fill:rgba(0, 0, 0, 0);fill-opacity:0;stroke-width:0px;"/></g></g><g id="sprotty_ArchitectureBlockImpl$Ir/BPortImpl$clk" transform="translate(0, 262.9813013076782)" class="triangle"><path d="M 0,0 L 5,2.5 L 0,5 Z" transform="translate(-1.67, -2.5)" class="sprotty-port" style="fill:rgb(48, 48, 48);stroke:rgb(48, 48, 48);"/><g class="port sprotty-label" id="sprotty_ArchitectureBlockImpl$Ir/BPortImpl$clk/label" transform="translate(3, 3) translate(0, -0.1729000061750412)" style="cursor:default;font-family:Arial, Helvetica, sans-serif;fill:rgb(48, 48, 48);text-anchor:middle;"><path d="M4.07 0.17C4.93 0.17 5.76-0.16 6.40-0.74L5.88-1.56C5.43-1.14 4.84-0.84 4.18-0.84C2.85-0.84 1.94-1.94 1.94-3.60C1.94-5.27 2.90-6.40 4.20-6.40C4.79-6.40 5.23-6.13 5.65-5.75L6.28-6.56C5.76-7.01 5.11-7.41 4.16-7.41C2.31-7.41 0.68-6.01 0.68-3.60C0.68-1.21 2.15 0.17 4.07 0.17ZM9.27 0.17C9.59 0.17 9.80 0.13 9.98 0.07L9.80-0.86C9.67-0.84 9.62-0.84 9.55-0.84C9.36-0.84 9.20-0.98 9.20-1.36L9.20-10.59L7.99-10.59L7.99-1.44C7.99-0.41 8.37 0.17 9.27 0.17ZM11.78 0L12.98 0L12.98-1.90L14.34-3.48L16.45 0L17.77 0L15.03-4.32L17.45-7.22L16.11-7.22L13.01-3.40L12.98-3.40L12.98-10.59L11.78-10.59Z" transform="translate(4, 12.7597)"/><rect x="0" y="0.17290000000000003" width="25.9018" height="14.7597" class="clickable" style="cursor:pointer;fill:rgba(0, 0, 0, 0);fill-opacity:0;stroke-width:0px;"/></g></g><g id="sprotty_ArchitectureBlockImpl$Ir/BPortImpl$Opcode" transform="translate(307.5019836425781, 118.6249008178711)" class="triangle"><path d="M 0,0 L 5,2.5 L 0,5 Z" transform="translate(-1.67, -2.5)" class="sprotty-port" style="fill:rgb(48, 48, 48);stroke:rgb(48, 48, 48);"/><g class="port sprotty-label" id="sprotty_ArchitectureBlockImpl$Ir/BPortImpl$Opcode/label" transform="translate(-59.23910140991211, 3) translate(0, -3.0457000732421875)" style="cursor:default;font-family:Arial, Helvetica, sans-serif;fill:rgb(48, 48, 48);text-anchor:middle;"><path d="M4.93 0.17C7.38 0.17 9.10-1.78 9.10-4.91C9.10-8.03 7.38-9.94 4.93-9.94C2.49-9.94 0.77-8.03 0.77-4.91C0.77-1.78 2.49 0.17 4.93 0.17ZM4.93-0.90C3.18-0.90 2.03-2.47 2.03-4.91C2.03-7.35 3.18-8.86 4.93-8.86C6.68-8.86 7.83-7.35 7.83-4.91C7.83-2.47 6.68-0.90 4.93-0.90ZM11.09 3.05L12.30 3.05L12.30 0.60L12.28-0.67C12.93-0.13 13.62 0.17 14.27 0.17C15.93 0.17 17.41-1.25 17.41-3.72C17.41-5.95 16.40-7.41 14.54-7.41C13.70-7.41 12.89-6.93 12.24-6.40L12.20-6.40L12.09-7.22L11.09-7.22ZM14.07-0.84C13.59-0.84 12.95-1.04 12.30-1.60L12.30-5.39C13.01-6.04 13.63-6.38 14.24-6.38C15.61-6.38 16.15-5.31 16.15-3.71C16.15-1.92 15.27-0.84 14.07-0.84ZM22.18 0.17C23.05 0.17 23.87-0.16 24.51-0.74L23.99-1.56C23.54-1.14 22.96-0.84 22.29-0.84C20.96-0.84 20.06-1.94 20.06-3.60C20.06-5.27 21.01-6.40 22.32-6.40C22.90-6.40 23.34-6.13 23.77-5.75L24.39-6.56C23.87-7.01 23.22-7.41 22.28-7.41C20.43-7.41 18.79-6.01 18.79-3.60C18.79-1.21 20.27 0.17 22.18 0.17ZM28.60 0.17C30.36 0.17 31.95-1.21 31.95-3.60C31.95-6.01 30.36-7.41 28.60-7.41C26.83-7.41 25.24-6.01 25.24-3.60C25.24-1.21 26.83 0.17 28.60 0.17ZM28.60-0.84C27.34-0.84 26.51-1.94 26.51-3.60C26.51-5.27 27.34-6.40 28.60-6.40C29.85-6.40 30.70-5.27 30.70-3.60C30.70-1.94 29.85-0.84 28.60-0.84ZM36.31 0.17C37.17 0.17 37.93-0.29 38.50-0.85L38.53-0.85L38.65 0L39.63 0L39.63-10.59L38.42-10.59L38.42-7.81L38.49-6.56C37.85-7.09 37.31-7.41 36.46-7.41C34.81-7.41 33.33-5.95 33.33-3.60C33.33-1.20 34.50 0.17 36.31 0.17ZM36.58-0.84C35.30-0.84 34.58-1.88 34.58-3.62C34.58-5.27 35.50-6.38 36.67-6.38C37.27-6.38 37.81-6.17 38.42-5.63L38.42-1.84C37.83-1.17 37.24-0.84 36.58-0.84ZM45.01 0.17C45.99 0.17 46.76-0.16 47.40-0.57L46.96-1.37C46.43-1.01 45.86-0.80 45.15-0.80C43.78-0.80 42.84-1.78 42.76-3.33L47.63-3.33C47.65-3.50 47.68-3.75 47.68-4.02C47.68-6.08 46.64-7.41 44.81-7.41C43.13-7.41 41.55-5.95 41.55-3.60C41.55-1.22 43.09 0.17 45.01 0.17ZM42.75-4.19C42.89-5.61 43.80-6.44 44.82-6.44C45.95-6.44 46.62-5.65 46.62-4.19Z" transform="translate(4, 15.6325)"/><rect x="0" y="3.0457" width="56.23910000000001" height="17.6325" class="clickable" style="cursor:pointer;fill:rgba(0, 0, 0, 0);fill-opacity:0;stroke-width:0px;"/></g></g><g id="sprotty_ArchitectureBlockImpl$Ir/BPortImpl$rs" transform="translate(307.5019836425781, 149.2574005126953)" class="triangle"><path d="M 0,0 L 5,2.5 L 0,5 Z" transform="translate(-1.67, -2.5)" class="sprotty-port" style="fill:rgb(48, 48, 48);stroke:rgb(48, 48, 48);"/><g class="port sprotty-label" id="sprotty_ArchitectureBlockImpl$Ir/BPortImpl$rs/label" transform="translate(-22.331600189208984, 3) translate(0, -0.1729000061750412)" style="cursor:default;font-family:Arial, Helvetica, sans-serif;fill:rgb(48, 48, 48);text-anchor:middle;"><path d="M1.22 0L2.43 0L2.43-4.64C2.91-5.88 3.66-6.30 4.26-6.30C4.55-6.30 4.72-6.28 4.96-6.18L5.19-7.25C4.96-7.37 4.73-7.41 4.42-7.41C3.60-7.41 2.87-6.82 2.37-5.91L2.33-5.91L2.22-7.22L1.22-7.22ZM8.22 0.17C9.92 0.17 10.85-0.80 10.85-1.97C10.85-3.34 9.70-3.76 8.64-4.16C7.83-4.47 7.05-4.72 7.05-5.41C7.05-5.97 7.46-6.45 8.37-6.45C9.02-6.45 9.52-6.18 10.03-5.81L10.61-6.60C10.04-7.04 9.26-7.41 8.37-7.41C6.80-7.41 5.88-6.50 5.88-5.36C5.88-4.14 7.02-3.64 8.03-3.27C8.83-2.97 9.68-2.63 9.68-1.90C9.68-1.28 9.22-0.77 8.26-0.77C7.39-0.77 6.74-1.12 6.12-1.62L5.52-0.82C6.21-0.25 7.20 0.17 8.22 0.17Z" transform="translate(4, 9.581000000000001)"/><rect x="0" y="0.17290000000000003" width="19.3316" height="11.581000000000001" class="clickable" style="cursor:pointer;fill:rgba(0, 0, 0, 0);fill-opacity:0;stroke-width:0px;"/></g></g><g id="sprotty_ArchitectureBlockImpl$Ir/BPortImpl$rt" transform="translate(307.5019836425781, 92.20850086212158)" class="triangle"><path d="M 0,0 L 5,2.5 L 0,5 Z" transform="translate(-1.67, -2.5)" class="sprotty-port" style="fill:rgb(48, 48, 48);stroke:rgb(48, 48, 48);"/><g class="port sprotty-label" id="sprotty_ArchitectureBlockImpl$Ir/BPortImpl$rt/label" transform="translate(-21.17449951171875, 3) translate(0, -0.1729000061750412)" style="cursor:default;font-family:Arial, Helvetica, sans-serif;fill:rgb(48, 48, 48);text-anchor:middle;"><path d="M1.22 0L2.43 0L2.43-4.64C2.91-5.88 3.66-6.30 4.26-6.30C4.55-6.30 4.72-6.28 4.96-6.18L5.19-7.25C4.96-7.37 4.73-7.41 4.42-7.41C3.60-7.41 2.87-6.82 2.37-5.91L2.33-5.91L2.22-7.22L1.22-7.22ZM8.66 0.17C9.10 0.17 9.58 0.04 9.99-0.09L9.75-1.00C9.51-0.90 9.18-0.81 8.92-0.81C8.09-0.81 7.81-1.32 7.81-2.21L7.81-6.24L9.76-6.24L9.76-7.22L7.81-7.22L7.81-9.24L6.80-9.24L6.65-7.22L5.52-7.16L5.52-6.24L6.60-6.24L6.60-2.23C6.60-0.78 7.12 0.17 8.66 0.17Z" transform="translate(4, 11.416400000000001)"/><rect x="0" y="0.17290000000000003" width="18.174500000000002" height="13.416400000000001" class="clickable" style="cursor:pointer;fill:rgba(0, 0, 0, 0);fill-opacity:0;stroke-width:0px;"/></g></g><g id="sprotty_ArchitectureBlockImpl$Ir/BPortImpl$rd" transform="translate(307.5019836425781, 35)" class="triangle"><path d="M 0,0 L 5,2.5 L 0,5 Z" transform="translate(-1.67, -2.5)" class="sprotty-port" style="fill:rgb(48, 48, 48);stroke:rgb(48, 48, 48);"/><g class="port sprotty-label" id="sprotty_ArchitectureBlockImpl$Ir/BPortImpl$rd/label" transform="translate(-24.260099411010742, 3) translate(0, -0.1729000061750412)" style="cursor:default;font-family:Arial, Helvetica, sans-serif;fill:rgb(48, 48, 48);text-anchor:middle;"><path d="M1.22 0L2.43 0L2.43-4.64C2.91-5.88 3.66-6.30 4.26-6.30C4.55-6.30 4.72-6.28 4.96-6.18L5.19-7.25C4.96-7.37 4.73-7.41 4.42-7.41C3.60-7.41 2.87-6.82 2.37-5.91L2.33-5.91L2.22-7.22L1.22-7.22ZM8.70 0.17C9.56 0.17 10.32-0.29 10.89-0.85L10.92-0.85L11.04 0L12.02 0L12.02-10.59L10.81-10.59L10.81-7.81L10.88-6.56C10.24-7.09 9.70-7.41 8.84-7.41C7.20-7.41 5.72-5.95 5.72-3.60C5.72-1.20 6.89 0.17 8.70 0.17ZM8.96-0.84C7.69-0.84 6.97-1.88 6.97-3.62C6.97-5.27 7.89-6.38 9.06-6.38C9.66-6.38 10.20-6.17 10.81-5.63L10.81-1.84C10.21-1.17 9.63-0.84 8.96-0.84Z" transform="translate(4, 12.7597)"/><rect x="0" y="0.17290000000000003" width="21.2601" height="14.7597" class="clickable" style="cursor:pointer;fill:rgba(0, 0, 0, 0);fill-opacity:0;stroke-width:0px;"/></g></g><g id="sprotty_ArchitectureBlockImpl$Ir/BPortImpl$immed_addr" transform="translate(307.5019836425781, 62.75969982147217)" class="triangle"><path d="M 0,0 L 5,2.5 L 0,5 Z" transform="translate(-1.67, -2.5)" class="sprotty-port" style="fill:rgb(48, 48, 48);stroke:rgb(48, 48, 48);"/><g class="port sprotty-label" id="sprotty_ArchitectureBlockImpl$Ir/BPortImpl$immed_addr/label" transform="translate(-91.4916000366211, 3) translate(0, -1.8619999885559082)" style="cursor:default;font-family:Arial, Helvetica, sans-serif;fill:rgb(48, 48, 48);text-anchor:middle;"><path d="M1.22 0L2.43 0L2.43-7.22L1.22-7.22ZM1.84-8.71C2.31-8.71 2.67-9.04 2.67-9.50C2.67-9.99 2.31-10.28 1.84-10.28C1.36-10.28 1.00-9.99 1.00-9.50C1.00-9.04 1.36-8.71 1.84-8.71ZM4.88 0L6.09 0L6.09-5.24C6.76-5.99 7.37-6.34 7.91-6.34C8.83-6.34 9.26-5.77 9.26-4.42L9.26 0L10.47 0L10.47-5.24C11.15-5.99 11.73-6.34 12.29-6.34C13.21-6.34 13.63-5.77 13.63-4.42L13.63 0L14.84 0L14.84-4.58C14.84-6.42 14.14-7.41 12.65-7.41C11.77-7.41 11.01-6.84 10.27-6.02C9.98-6.88 9.38-7.41 8.27-7.41C7.41-7.41 6.65-6.86 6.02-6.17L5.99-6.17L5.88-7.22L4.88-7.22ZM17.20 0L18.41 0L18.41-5.24C19.07-5.99 19.68-6.34 20.23-6.34C21.15-6.34 21.57-5.77 21.57-4.42L21.57 0L22.78 0L22.78-5.24C23.46-5.99 24.05-6.34 24.61-6.34C25.52-6.34 25.95-5.77 25.95-4.42L25.95 0L27.16 0L27.16-4.58C27.16-6.42 26.45-7.41 24.96-7.41C24.09-7.41 23.33-6.84 22.58-6.02C22.29-6.88 21.69-7.41 20.59-7.41C19.72-7.41 18.97-6.86 18.34-6.17L18.30-6.17L18.19-7.22L17.20-7.22ZM32.43 0.17C33.41 0.17 34.18-0.16 34.82-0.57L34.38-1.37C33.85-1.01 33.28-0.80 32.57-0.80C31.20-0.80 30.26-1.78 30.18-3.33L35.05-3.33C35.07-3.50 35.10-3.75 35.10-4.02C35.10-6.08 34.06-7.41 32.23-7.41C30.55-7.41 28.97-5.95 28.97-3.60C28.97-1.22 30.51 0.17 32.43 0.17ZM30.16-4.19C30.31-5.61 31.22-6.44 32.24-6.44C33.37-6.44 34.03-5.65 34.03-4.19ZM39.34 0.17C40.21 0.17 40.96-0.29 41.54-0.85L41.56-0.85L41.68 0L42.67 0L42.67-10.59L41.46-10.59L41.46-7.81L41.52-6.56C40.88-7.09 40.34-7.41 39.49-7.41C37.84-7.41 36.36-5.95 36.36-3.60C36.36-1.20 37.53 0.17 39.34 0.17ZM39.61-0.84C38.33-0.84 37.61-1.88 37.61-3.62C37.61-5.27 38.53-6.38 39.70-6.38C40.30-6.38 40.84-6.17 41.46-5.63L41.46-1.84C40.86-1.17 40.27-0.84 39.61-0.84ZM44.08 1.86L51.15 1.86L51.15 1.05L44.08 1.05ZM54.22 0.17C55.12 0.17 55.93-0.29 56.62-0.86L56.66-0.86L56.76 0L57.76 0L57.76-4.44C57.76-6.22 57.02-7.41 55.26-7.41C54.10-7.41 53.08-6.89 52.42-6.46L52.89-5.63C53.47-6.01 54.22-6.40 55.06-6.40C56.25-6.40 56.55-5.51 56.55-4.58C53.48-4.23 52.11-3.44 52.11-1.88C52.11-0.57 53.01 0.17 54.22 0.17ZM54.57-0.80C53.85-0.80 53.29-1.13 53.29-1.96C53.29-2.89 54.12-3.48 56.55-3.78L56.55-1.76C55.85-1.13 55.27-0.80 54.57-0.80ZM62.52 0.17C63.39 0.17 64.15-0.29 64.72-0.85L64.74-0.85L64.86 0L65.85 0L65.85-10.59L64.64-10.59L64.64-7.81L64.70-6.56C64.07-7.09 63.52-7.41 62.67-7.41C61.02-7.41 59.54-5.95 59.54-3.60C59.54-1.20 60.71 0.17 62.52 0.17ZM62.79-0.84C61.51-0.84 60.79-1.88 60.79-3.62C60.79-5.27 61.71-6.38 62.88-6.38C63.48-6.38 64.03-6.17 64.64-5.63L64.64-1.84C64.04-1.17 63.45-0.84 62.79-0.84ZM70.77 0.17C71.63 0.17 72.39-0.29 72.96-0.85L72.99-0.85L73.11 0L74.09 0L74.09-10.59L72.88-10.59L72.88-7.81L72.95-6.56C72.31-7.09 71.77-7.41 70.92-7.41C69.27-7.41 67.79-5.95 67.79-3.60C67.79-1.20 68.96 0.17 70.77 0.17ZM71.04-0.84C69.76-0.84 69.04-1.88 69.04-3.62C69.04-5.27 69.96-6.38 71.13-6.38C71.73-6.38 72.27-6.17 72.88-5.63L72.88-1.84C72.29-1.17 71.70-0.84 71.04-0.84ZM76.55 0L77.77 0L77.77-4.64C78.24-5.88 78.99-6.30 79.59-6.30C79.88-6.30 80.05-6.28 80.29-6.18L80.52-7.25C80.29-7.37 80.07-7.41 79.75-7.41C78.94-7.41 78.20-6.82 77.70-5.91L77.66-5.91L77.55-7.22L76.55-7.22Z" transform="translate(4, 14.4488)"/><rect x="0" y="1.862" width="88.49159999999999" height="16.4488" class="clickable" style="cursor:pointer;fill:rgba(0, 0, 0, 0);fill-opacity:0;stroke-width:0px;"/></g></g><g id="sprotty_ArchitectureBlockImpl$Ir/BPortImpl$Ext_sz_c" transform="translate(307.5019836425781, 173.83840084075928)" class="triangle"><path d="M 0,0 L 5,2.5 L 0,5 Z" transform="translate(-1.67, -2.5)" class="sprotty-port" style="fill:rgb(48, 48, 48);stroke:rgb(48, 48, 48);"/><g class="port sprotty-label" id="sprotty_ArchitectureBlockImpl$Ir/BPortImpl$Ext_sz_c/label" transform="translate(-63.814300537109375, 3) translate(0, -1.8619999885559082)" style="cursor:default;font-family:Arial, Helvetica, sans-serif;fill:rgb(48, 48, 48);text-anchor:middle;"><path d="M1.33 0L7.10 0L7.10-1.05L2.57-1.05L2.57-4.60L6.26-4.60L6.26-5.65L2.57-5.65L2.57-8.71L6.96-8.71L6.96-9.75L1.33-9.75ZM7.57 0L8.84 0L9.82-1.69C10.07-2.13 10.31-2.57 10.56-2.98L10.63-2.98C10.89-2.57 11.16-2.13 11.40-1.69L12.46 0L13.79 0L11.41-3.64L13.61-7.22L12.34-7.22L11.45-5.63C11.24-5.23 11.03-4.83 10.80-4.43L10.75-4.43C10.51-4.83 10.25-5.23 10.03-5.63L9.06-7.22L7.75-7.22L9.95-3.76ZM17.13 0.17C17.57 0.17 18.05 0.04 18.46-0.09L18.22-1.00C17.98-0.90 17.65-0.81 17.40-0.81C16.56-0.81 16.28-1.32 16.28-2.21L16.28-6.24L18.23-6.24L18.23-7.22L16.28-7.22L16.28-9.24L15.27-9.24L15.12-7.22L13.99-7.16L13.99-6.24L15.07-6.24L15.07-2.23C15.07-0.78 15.59 0.17 17.13 0.17ZM18.82 1.86L25.90 1.86L25.90 1.05L18.82 1.05ZM29.19 0.17C30.90 0.17 31.83-0.80 31.83-1.97C31.83-3.34 30.67-3.76 29.62-4.16C28.81-4.47 28.02-4.72 28.02-5.41C28.02-5.97 28.44-6.45 29.34-6.45C29.99-6.45 30.50-6.18 31.00-5.81L31.59-6.60C31.02-7.04 30.23-7.41 29.34-7.41C27.77-7.41 26.85-6.50 26.85-5.36C26.85-4.14 28.00-3.64 29.01-3.27C29.81-2.97 30.66-2.63 30.66-1.90C30.66-1.28 30.19-0.77 29.23-0.77C28.37-0.77 27.72-1.12 27.09-1.62L26.49-0.82C27.19-0.25 28.17 0.17 29.19 0.17ZM32.77 0L38.24 0L38.24-0.98L34.30-0.98L38.10-6.57L38.10-7.22L33.18-7.22L33.18-6.24L36.58-6.24L32.77-0.65ZM38.78 1.86L45.86 1.86L45.86 1.05L38.78 1.05ZM50.11 0.17C50.98 0.17 51.80-0.16 52.44-0.74L51.92-1.56C51.47-1.14 50.89-0.84 50.22-0.84C48.89-0.84 47.99-1.94 47.99-3.60C47.99-5.27 48.94-6.40 50.25-6.40C50.83-6.40 51.27-6.13 51.70-5.75L52.32-6.56C51.80-7.01 51.15-7.41 50.21-7.41C48.36-7.41 46.72-6.01 46.72-3.60C46.72-1.21 48.20 0.17 50.11 0.17Z" transform="translate(4, 13.6109)"/><rect x="0" y="1.862" width="60.8143" height="15.6109" class="clickable" style="cursor:pointer;fill:rgba(0, 0, 0, 0);fill-opacity:0;stroke-width:0px;"/></g></g><g id="sprotty_ArchitectureBlockImpl$Ir/BPortImpl$From_i_op" transform="translate(307.5019836425781, 256.3146346410116)" class="triangle"><path d="M 0,0 L 5,2.5 L 0,5 Z" transform="translate(-1.67, -2.5)" class="sprotty-port" style="fill:rgb(48, 48, 48);stroke:rgb(48, 48, 48);"/><g class="port sprotty-label" id="sprotty_ArchitectureBlockImpl$Ir/BPortImpl$From_i_op/label" transform="translate(-78.27140045166016, 3) translate(0, -3.0457000732421875)" style="cursor:default;font-family:Arial, Helvetica, sans-serif;fill:rgb(48, 48, 48);text-anchor:middle;"><path d="M1.33 0L2.57 0L2.57-4.38L6.29-4.38L6.29-5.41L2.57-5.41L2.57-8.71L6.96-8.71L6.96-9.75L1.33-9.75ZM8.27 0L9.48 0L9.48-4.64C9.96-5.88 10.71-6.30 11.30-6.30C11.60-6.30 11.77-6.28 12.01-6.18L12.24-7.25C12.01-7.37 11.78-7.41 11.46-7.41C10.65-7.41 9.92-6.82 9.42-5.91L9.38-5.91L9.27-7.22L8.27-7.22ZM16.09 0.17C17.86 0.17 19.44-1.21 19.44-3.60C19.44-6.01 17.86-7.41 16.09-7.41C14.32-7.41 12.74-6.01 12.74-3.60C12.74-1.21 14.32 0.17 16.09 0.17ZM16.09-0.84C14.84-0.84 14.00-1.94 14.00-3.60C14.00-5.27 14.84-6.40 16.09-6.40C17.34-6.40 18.19-5.27 18.19-3.60C18.19-1.94 17.34-0.84 16.09-0.84ZM21.35 0L22.56 0L22.56-5.24C23.22-5.99 23.83-6.34 24.38-6.34C25.30-6.34 25.72-5.77 25.72-4.42L25.72 0L26.93 0L26.93-5.24C27.61-5.99 28.20-6.34 28.75-6.34C29.67-6.34 30.10-5.77 30.10-4.42L30.10 0L31.31 0L31.31-4.58C31.31-6.42 30.60-7.41 29.11-7.41C28.24-7.41 27.48-6.84 26.73-6.02C26.44-6.88 25.84-7.41 24.74-7.41C23.87-7.41 23.12-6.86 22.49-6.17L22.45-6.17L22.34-7.22L21.35-7.22ZM32.61 1.86L39.69 1.86L39.69 1.05L32.61 1.05ZM41.10 0L42.31 0L42.31-7.22L41.10-7.22ZM41.71-8.71C42.19-8.71 42.55-9.04 42.55-9.50C42.55-9.99 42.19-10.28 41.71-10.28C41.23-10.28 40.87-9.99 40.87-9.50C40.87-9.04 41.23-8.71 41.71-8.71ZM43.70 1.86L50.78 1.86L50.78 1.05L43.70 1.05ZM55.00 0.17C56.76 0.17 58.35-1.21 58.35-3.60C58.35-6.01 56.76-7.41 55.00-7.41C53.23-7.41 51.64-6.01 51.64-3.60C51.64-1.21 53.23 0.17 55.00 0.17ZM55.00-0.84C53.75-0.84 52.91-1.94 52.91-3.60C52.91-5.27 53.75-6.40 55.00-6.40C56.25-6.40 57.10-5.27 57.10-3.60C57.10-1.94 56.25-0.84 55.00-0.84ZM60.25 3.05L61.46 3.05L61.46 0.60L61.43-0.67C62.08-0.13 62.78 0.17 63.43 0.17C65.09 0.17 66.57-1.25 66.57-3.72C66.57-5.95 65.56-7.41 63.69-7.41C62.86-7.41 62.04-6.93 61.39-6.40L61.35-6.40L61.25-7.22L60.25-7.22ZM63.23-0.84C62.75-0.84 62.11-1.04 61.46-1.60L61.46-5.39C62.16-6.04 62.79-6.38 63.40-6.38C64.77-6.38 65.30-5.31 65.30-3.71C65.30-1.92 64.43-0.84 63.23-0.84Z" transform="translate(4, 15.326600000000001)"/><rect x="0" y="3.0457" width="75.2714" height="17.3266" class="clickable" style="cursor:pointer;fill:rgba(0, 0, 0, 0);fill-opacity:0;stroke-width:0px;"/></g></g><g id="sprotty_ArchitectureBlockImpl$Ir/BPortImpl$From_i_mux" transform="translate(307.5019836425781, 227.17173417409262)" class="triangle"><path d="M 0,0 L 5,2.5 L 0,5 Z" transform="translate(-1.67, -2.5)" class="sprotty-port" style="fill:rgb(48, 48, 48);stroke:rgb(48, 48, 48);"/><g class="port sprotty-label" id="sprotty_ArchitectureBlockImpl$Ir/BPortImpl$From_i_mux/label" transform="translate(-88.97789764404297, 3) translate(0, -1.8619999885559082)" style="cursor:default;font-family:Arial, Helvetica, sans-serif;fill:rgb(48, 48, 48);text-anchor:middle;"><path d="M1.33 0L2.57 0L2.57-4.38L6.29-4.38L6.29-5.41L2.57-5.41L2.57-8.71L6.96-8.71L6.96-9.75L1.33-9.75ZM8.27 0L9.48 0L9.48-4.64C9.96-5.88 10.71-6.30 11.30-6.30C11.60-6.30 11.77-6.28 12.01-6.18L12.24-7.25C12.01-7.37 11.78-7.41 11.46-7.41C10.65-7.41 9.92-6.82 9.42-5.91L9.38-5.91L9.27-7.22L8.27-7.22ZM16.09 0.17C17.86 0.17 19.44-1.21 19.44-3.60C19.44-6.01 17.86-7.41 16.09-7.41C14.32-7.41 12.74-6.01 12.74-3.60C12.74-1.21 14.32 0.17 16.09 0.17ZM16.09-0.84C14.84-0.84 14.00-1.94 14.00-3.60C14.00-5.27 14.84-6.40 16.09-6.40C17.34-6.40 18.19-5.27 18.19-3.60C18.19-1.94 17.34-0.84 16.09-0.84ZM21.35 0L22.56 0L22.56-5.24C23.22-5.99 23.83-6.34 24.38-6.34C25.30-6.34 25.72-5.77 25.72-4.42L25.72 0L26.93 0L26.93-5.24C27.61-5.99 28.20-6.34 28.75-6.34C29.67-6.34 30.10-5.77 30.10-4.42L30.10 0L31.31 0L31.31-4.58C31.31-6.42 30.60-7.41 29.11-7.41C28.24-7.41 27.48-6.84 26.73-6.02C26.44-6.88 25.84-7.41 24.74-7.41C23.87-7.41 23.12-6.86 22.49-6.17L22.45-6.17L22.34-7.22L21.35-7.22ZM32.61 1.86L39.69 1.86L39.69 1.05L32.61 1.05ZM41.10 0L42.31 0L42.31-7.22L41.10-7.22ZM41.71-8.71C42.19-8.71 42.55-9.04 42.55-9.50C42.55-9.99 42.19-10.28 41.71-10.28C41.23-10.28 40.87-9.99 40.87-9.50C40.87-9.04 41.23-8.71 41.71-8.71ZM43.70 1.86L50.78 1.86L50.78 1.05L43.70 1.05ZM52.19 0L53.40 0L53.40-5.24C54.06-5.99 54.68-6.34 55.22-6.34C56.14-6.34 56.56-5.77 56.56-4.42L56.56 0L57.78 0L57.78-5.24C58.45-5.99 59.04-6.34 59.60-6.34C60.52-6.34 60.94-5.77 60.94-4.42L60.94 0L62.15 0L62.15-4.58C62.15-6.42 61.45-7.41 59.96-7.41C59.08-7.41 58.32-6.84 57.58-6.02C57.28-6.88 56.68-7.41 55.58-7.41C54.72-7.41 53.96-6.86 53.33-6.17L53.29-6.17L53.19-7.22L52.19-7.22ZM66.61 0.17C67.60 0.17 68.32-0.35 69.00-1.13L69.04-1.13L69.13 0L70.14 0L70.14-7.22L68.93-7.22L68.93-2.10C68.24-1.24 67.72-0.88 66.98-0.88C66.02-0.88 65.62-1.45 65.62-2.79L65.62-7.22L64.41-7.22L64.41-2.65C64.41-0.81 65.09 0.17 66.61 0.17ZM71.55 0L72.83 0L73.80-1.69C74.05-2.13 74.29-2.57 74.55-2.98L74.61-2.98C74.88-2.57 75.14-2.13 75.38-1.69L76.45 0L77.78 0L75.40-3.64L77.59-7.22L76.33-7.22L75.44-5.63C75.22-5.23 75.01-4.83 74.79-4.43L74.73-4.43C74.49-4.83 74.24-5.23 74.01-5.63L73.04-7.22L71.74-7.22L73.93-3.76Z" transform="translate(4, 14.142900000000001)"/><rect x="0" y="1.862" width="85.9779" height="16.1429" class="clickable" style="cursor:pointer;fill:rgba(0, 0, 0, 0);fill-opacity:0;stroke-width:0px;"/></g></g><g id="sprotty_ArchitectureBlockImpl$Ir/BPortImpl$lui" transform="translate(307.5019836425781, 293.8384008407593)" class="triangle"><path d="M 0,0 L 5,2.5 L 0,5 Z" transform="translate(-1.67, -2.5)" class="sprotty-port" style="fill:rgb(48, 48, 48);stroke:rgb(48, 48, 48);"/><g class="port sprotty-label" id="sprotty_ArchitectureBlockImpl$Ir/BPortImpl$lui/label" transform="translate(-26.521100997924805, 3) translate(0, -0.1729000061750412)" style="cursor:default;font-family:Arial, Helvetica, sans-serif;fill:rgb(48, 48, 48);text-anchor:middle;"><path d="M2.50 0.17C2.82 0.17 3.03 0.13 3.21 0.07L3.03-0.86C2.90-0.84 2.85-0.84 2.78-0.84C2.59-0.84 2.43-0.98 2.43-1.36L2.43-10.59L1.22-10.59L1.22-1.44C1.22-0.41 1.60 0.17 2.50 0.17ZM7.12 0.17C8.11 0.17 8.83-0.35 9.51-1.13L9.55-1.13L9.64 0L10.65 0L10.65-7.22L9.44-7.22L9.44-2.10C8.75-1.24 8.23-0.88 7.49-0.88C6.53-0.88 6.13-1.45 6.13-2.79L6.13-7.22L4.92-7.22L4.92-2.65C4.92-0.81 5.60 0.17 7.12 0.17ZM13.09 0L14.30 0L14.30-7.22L13.09-7.22ZM13.70-8.71C14.18-8.71 14.54-9.04 14.54-9.50C14.54-9.99 14.18-10.28 13.70-10.28C13.22-10.28 12.86-9.99 12.86-9.50C12.86-9.04 13.22-8.71 13.70-8.71Z" transform="translate(4, 12.7597)"/><rect x="0" y="0.17290000000000003" width="23.5211" height="14.7597" class="clickable" style="cursor:pointer;fill:rgba(0, 0, 0, 0);fill-opacity:0;stroke-width:0px;"/></g></g></g></g></svg>