<?xml version="1.0" encoding="UTF-8" standalone="no"?>
<!DOCTYPE svg PUBLIC "-//W3C//DTD SVG 1.1//EN"
 "http://www.w3.org/Graphics/SVG/1.1/DTD/svg11.dtd">
<!-- Generated by graphviz version 2.28.0 (20120627.1908)
 -->
<!-- Title: G Pages: 1 -->
<svg width="142pt" height="88pt"
 viewBox="0.00 0.00 142.00 88.00" xmlns="http://www.w3.org/2000/svg" xmlns:xlink="http://www.w3.org/1999/xlink">
<g id="graph1" class="graph" transform="scale(1 1) rotate(0) translate(4 84)">
<title>G</title>
<!-- Node1 -->
<g id="node1" class="node"><title>Node1</title>
<polygon fill="#bfbfbf" stroke="black" points="51.3179,-1 51.3179,-21 110.682,-21 110.682,-1 51.3179,-1"/>
<text text-anchor="middle" x="81" y="-7" font-family="Helvetica,sans-Serif" font-size="10.00">testbench</text>
</g>
<!-- Node2 -->
<g id="node2" class="node"><title>Node2</title>
<a xlink:href="classclock__generator.html" target="_top" xlink:title="clock_generator">
<polygon fill="none" stroke="black" points="-0.576172,-59 -0.576172,-79 86.5762,-79 86.5762,-59 -0.576172,-59"/>
<text text-anchor="middle" x="43" y="-65" font-family="Helvetica,sans-Serif" font-size="10.00">clock_generator</text>
</a>
</g>
<!-- Node2&#45;&gt;Node1 -->
<g id="edge2" class="edge"><title>Node2&#45;&gt;Node1</title>
<path fill="none" stroke="midnightblue" d="M55.0647,-50.2204C61.6447,-40.5235 69.511,-28.9312 74.8418,-21.0752"/>
<polygon fill="midnightblue" stroke="midnightblue" points="51.9938,-48.5127 49.2749,-58.7527 57.7862,-52.4432 51.9938,-48.5127"/>
</g>
<!-- Node3 -->
<g id="node4" class="node"><title>Node3</title>
<a xlink:href="classdut.html" target="_top" xlink:title="Design Under Test.">
<polygon fill="none" stroke="black" points="105.049,-59 105.049,-79 134.951,-79 134.951,-59 105.049,-59"/>
<text text-anchor="middle" x="120" y="-65" font-family="Helvetica,sans-Serif" font-size="10.00">dut</text>
</a>
</g>
<!-- Node3&#45;&gt;Node1 -->
<g id="edge4" class="edge"><title>Node3&#45;&gt;Node1</title>
<path fill="none" stroke="midnightblue" d="M107.826,-50.5197C101.031,-40.763 92.8478,-29.0122 87.3202,-21.0752"/>
<polygon fill="midnightblue" stroke="midnightblue" points="104.973,-52.5469 113.56,-58.7527 110.717,-48.5464 104.973,-52.5469"/>
</g>
</g>
</svg>
