<?xml version="1.0" encoding="UTF-8" standalone="no"?>
<!DOCTYPE svg PUBLIC "-//W3C//DTD SVG 1.1//EN"
 "http://www.w3.org/Graphics/SVG/1.1/DTD/svg11.dtd">
<!-- Generated by graphviz version 2.28.0 (20120627.1908)
 -->
<!-- Title: G Pages: 1 -->
<svg width="192pt" height="67pt"
 viewBox="0.00 0.00 192.00 67.00" xmlns="http://www.w3.org/2000/svg" xmlns:xlink="http://www.w3.org/1999/xlink">
<g id="graph1" class="graph" transform="scale(1 1) rotate(0) translate(4 63)">
<title>G</title>
<!-- Node1 -->
<g id="node1" class="node"><title>Node1</title>
<a xlink:href="classclock__generator.html" target="_top" xlink:title="clock_generator">
<polygon fill="none" stroke="black" points="0.423828,-39 0.423828,-59 87.5762,-59 87.5762,-39 0.423828,-39"/>
<text text-anchor="middle" x="44" y="-45" font-family="Helvetica,sans-Serif" font-size="10.00">clock_generator</text>
</a>
</g>
<!-- Node2 -->
<g id="node3" class="node"><title>Node2</title>
<a xlink:href="classtestbench.html" target="_top" xlink:title="Test bench for Sigasi Tutorial Project.">
<polygon fill="none" stroke="black" points="124.318,-19 124.318,-39 183.682,-39 183.682,-19 124.318,-19"/>
<text text-anchor="middle" x="154" y="-25" font-family="Helvetica,sans-Serif" font-size="10.00">testbench</text>
</a>
</g>
<!-- Node1&#45;&gt;Node2 -->
<g id="edge2" class="edge"><title>Node1&#45;&gt;Node2</title>
<path fill="none" stroke="midnightblue" d="M97.5794,-39.2631C106.765,-37.5621 116.004,-35.851 124.235,-34.3268"/>
<polygon fill="midnightblue" stroke="midnightblue" points="96.8799,-35.833 87.6845,-41.0955 98.1546,-42.716 96.8799,-35.833"/>
</g>
<!-- Node3 -->
<g id="node4" class="node"><title>Node3</title>
<a xlink:href="classdut.html" target="_top" xlink:title="Design Under Test.">
<polygon fill="none" stroke="black" points="29.0493,-0 29.0493,-20 58.9507,-20 58.9507,-0 29.0493,-0"/>
<text text-anchor="middle" x="44" y="-6" font-family="Helvetica,sans-Serif" font-size="10.00">dut</text>
</a>
</g>
<!-- Node3&#45;&gt;Node2 -->
<g id="edge4" class="edge"><title>Node3&#45;&gt;Node2</title>
<path fill="none" stroke="midnightblue" d="M68.9755,-14.2179C85.3081,-17.0912 107.013,-20.9096 124.271,-23.9458"/>
<polygon fill="midnightblue" stroke="midnightblue" points="69.5743,-10.7696 59.1191,-12.4839 68.3614,-17.6637 69.5743,-10.7696"/>
</g>
</g>
</svg>
